<svg width="149" height="28" viewBox="0 0 149 28" fill="none" xmlns="http://www.w3.org/2000/svg">
<rect width="28" height="28" rx="14" fill="#0B0D17"/>
<path d="M16.32 16.1915L13.7108 17.8543C13.3155 18.1062 13.2032 18.6247 13.4599 19.0126C13.7134 19.3957 14.2322 19.5079 14.6258 19.2678L16.2469 18.1809L17.6787 17.219C17.7015 17.204 17.7243 17.1894 17.747 17.175L17.8192 17.1266C17.8605 17.0989 17.9033 17.075 17.9471 17.0547C17.9825 17.0345 18.0178 17.015 18.053 16.9961C18.9101 16.5377 19.9838 16.8478 20.451 17.6889C20.8603 18.4257 20.6734 19.3443 20.0072 19.8704C20.1119 19.6238 20.0949 19.3324 19.9354 19.0915C19.6819 18.7083 19.1631 18.5961 18.7695 18.8362L17.1484 19.9231L15.7165 20.8851C15.703 20.8937 15.6894 20.9022 15.6757 20.9106L15.576 20.9775C15.4922 21.0337 15.4022 21.0745 15.3097 21.1007C14.0631 21.6375 12.5682 21.2256 11.8026 20.0687C11.0063 18.8656 11.281 17.283 12.3929 16.4001C11.8647 16.1995 11.3639 15.9028 10.9179 15.5087C8.95425 13.7737 8.79372 10.8074 10.5593 8.88316C12.325 6.95894 15.3481 6.80552 17.3118 8.5405C19.2754 10.2755 19.4359 13.2418 17.6703 15.1661C17.2747 15.5972 16.8159 15.9395 16.32 16.1915ZM16.0671 13.7872C17.0807 12.6746 16.9885 10.9595 15.8613 9.95631C14.7341 8.95315 12.9986 9.04185 11.9851 10.1544C10.9715 11.267 11.0637 12.9822 12.1909 13.9853C13.3181 14.9885 15.0536 14.8998 16.0671 13.7872Z" fill="white"/>
<path d="M48.0312 13.0547V17.5625C47.8542 17.776 47.5807 18.0078 47.2109 18.2578C46.8411 18.5026 46.3646 18.7135 45.7812 18.8906C45.1979 19.0677 44.4922 19.1562 43.6641 19.1562C42.9297 19.1562 42.2604 19.0365 41.6562 18.7969C41.0521 18.5521 40.5312 18.1953 40.0938 17.7266C39.6615 17.2578 39.3281 16.6849 39.0938 16.0078C38.8594 15.3255 38.7422 14.5469 38.7422 13.6719V12.9609C38.7422 12.0859 38.8542 11.3073 39.0781 10.625C39.3073 9.94271 39.6328 9.36719 40.0547 8.89844C40.4766 8.42969 40.9792 8.07292 41.5625 7.82812C42.1458 7.58333 42.7943 7.46094 43.5078 7.46094C44.4974 7.46094 45.3099 7.6224 45.9453 7.94531C46.5807 8.26302 47.0651 8.70573 47.3984 9.27344C47.737 9.83594 47.9453 10.4818 48.0234 11.2109H45.75C45.6927 10.8255 45.5833 10.4896 45.4219 10.2031C45.2604 9.91667 45.0286 9.69271 44.7266 9.53125C44.4297 9.36979 44.0443 9.28906 43.5703 9.28906C43.1797 9.28906 42.8307 9.36979 42.5234 9.53125C42.2214 9.6875 41.9661 9.91927 41.7578 10.2266C41.5495 10.5339 41.3906 10.9141 41.2812 11.3672C41.1719 11.8203 41.1172 12.3464 41.1172 12.9453V13.6719C41.1172 14.2656 41.1745 14.7917 41.2891 15.25C41.4036 15.7031 41.5729 16.0859 41.7969 16.3984C42.026 16.7057 42.3073 16.9375 42.6406 17.0938C42.974 17.25 43.362 17.3281 43.8047 17.3281C44.1745 17.3281 44.4818 17.2969 44.7266 17.2344C44.9766 17.1719 45.1771 17.0964 45.3281 17.0078C45.4844 16.9141 45.6042 16.8255 45.6875 16.7422V14.7266H43.5469V13.0547H48.0312ZM52.0312 12.3906V19H49.7812V10.5469H51.8984L52.0312 12.3906ZM54.5781 10.4922L54.5391 12.5781C54.4297 12.5625 54.2969 12.5495 54.1406 12.5391C53.9896 12.5234 53.8516 12.5156 53.7266 12.5156C53.4089 12.5156 53.1328 12.5573 52.8984 12.6406C52.6693 12.7188 52.4766 12.8359 52.3203 12.9922C52.1693 13.1484 52.0547 13.3385 51.9766 13.5625C51.9036 13.7865 51.862 14.0417 51.8516 14.3281L51.3984 14.1875C51.3984 13.6406 51.4531 13.138 51.5625 12.6797C51.6719 12.2161 51.8307 11.8125 52.0391 11.4688C52.2526 11.125 52.513 10.8594 52.8203 10.6719C53.1276 10.4844 53.4792 10.3906 53.875 10.3906C54 10.3906 54.1276 10.401 54.2578 10.4219C54.388 10.4375 54.4948 10.4609 54.5781 10.4922ZM58.0156 10.5469V19H55.7578V10.5469H58.0156ZM55.6172 8.34375C55.6172 8.01562 55.7318 7.74479 55.9609 7.53125C56.1901 7.31771 56.4974 7.21094 56.8828 7.21094C57.263 7.21094 57.5677 7.31771 57.7969 7.53125C58.0312 7.74479 58.1484 8.01562 58.1484 8.34375C58.1484 8.67188 58.0312 8.94271 57.7969 9.15625C57.5677 9.36979 57.263 9.47656 56.8828 9.47656C56.4974 9.47656 56.1901 9.36979 55.9609 9.15625C55.7318 8.94271 55.6172 8.67188 55.6172 8.34375ZM62.0781 12.3516V19H59.8281V10.5469H61.9375L62.0781 12.3516ZM61.75 14.4766H61.1406C61.1406 13.8516 61.2214 13.2891 61.3828 12.7891C61.5443 12.2839 61.7708 11.8542 62.0625 11.5C62.3542 11.1406 62.7005 10.8672 63.1016 10.6797C63.5078 10.487 63.9609 10.3906 64.4609 10.3906C64.8568 10.3906 65.2188 10.4479 65.5469 10.5625C65.875 10.6771 66.1562 10.8594 66.3906 11.1094C66.6302 11.3594 66.8125 11.6901 66.9375 12.1016C67.0677 12.513 67.1328 13.0156 67.1328 13.6094V19H64.8672V13.6016C64.8672 13.2266 64.8151 12.9349 64.7109 12.7266C64.6068 12.5182 64.4531 12.3724 64.25 12.2891C64.0521 12.2005 63.8073 12.1562 63.5156 12.1562C63.2135 12.1562 62.9505 12.2161 62.7266 12.3359C62.5078 12.4557 62.3255 12.6224 62.1797 12.8359C62.0391 13.0443 61.9323 13.2891 61.8594 13.5703C61.7865 13.8516 61.75 14.1536 61.75 14.4766ZM73.8359 17.1562V7H76.1016V19H74.0625L73.8359 17.1562ZM68.4922 14.875V14.7109C68.4922 14.0651 68.5651 13.4792 68.7109 12.9531C68.8568 12.4219 69.0703 11.9661 69.3516 11.5859C69.6328 11.2057 69.9792 10.9115 70.3906 10.7031C70.8021 10.4948 71.2708 10.3906 71.7969 10.3906C72.2917 10.3906 72.724 10.4948 73.0938 10.7031C73.4688 10.9115 73.7865 11.2083 74.0469 11.5938C74.3125 11.974 74.526 12.4245 74.6875 12.9453C74.849 13.4609 74.9661 14.026 75.0391 14.6406V15C74.9661 15.5885 74.849 16.1354 74.6875 16.6406C74.526 17.1458 74.3125 17.5885 74.0469 17.9688C73.7865 18.3438 73.4688 18.6354 73.0938 18.8438C72.7188 19.0521 72.2812 19.1562 71.7812 19.1562C71.2552 19.1562 70.7865 19.0495 70.375 18.8359C69.9688 18.6224 69.625 18.3229 69.3438 17.9375C69.0677 17.5521 68.8568 17.099 68.7109 16.5781C68.5651 16.0573 68.4922 15.4896 68.4922 14.875ZM70.7422 14.7109V14.875C70.7422 15.224 70.7682 15.5495 70.8203 15.8516C70.8776 16.1536 70.9688 16.4219 71.0938 16.6562C71.224 16.8854 71.3906 17.0651 71.5938 17.1953C71.8021 17.3203 72.0547 17.3828 72.3516 17.3828C72.737 17.3828 73.0547 17.2969 73.3047 17.125C73.5547 16.9479 73.7448 16.7057 73.875 16.3984C74.0104 16.0911 74.0885 15.737 74.1094 15.3359V14.3125C74.0938 13.9844 74.0469 13.6901 73.9688 13.4297C73.8958 13.1641 73.7865 12.9375 73.6406 12.75C73.5 12.5625 73.3229 12.4167 73.1094 12.3125C72.901 12.2083 72.6536 12.1562 72.3672 12.1562C72.0755 12.1562 71.8255 12.224 71.6172 12.3594C71.4089 12.4896 71.2396 12.6693 71.1094 12.8984C70.9844 13.1276 70.8906 13.3984 70.8281 13.7109C70.7708 14.0182 70.7422 14.3516 70.7422 14.7109ZM81.75 19.1562C81.0938 19.1562 80.5052 19.0521 79.9844 18.8438C79.4635 18.6302 79.0208 18.3359 78.6562 17.9609C78.2969 17.5859 78.0208 17.151 77.8281 16.6562C77.6354 16.1562 77.5391 15.625 77.5391 15.0625V14.75C77.5391 14.1094 77.6302 13.5234 77.8125 12.9922C77.9948 12.4609 78.2552 12 78.5938 11.6094C78.9375 11.2188 79.3542 10.9193 79.8438 10.7109C80.3333 10.4974 80.8854 10.3906 81.5 10.3906C82.099 10.3906 82.6302 10.4896 83.0938 10.6875C83.5573 10.8854 83.9453 11.1667 84.2578 11.5312C84.5755 11.8958 84.8151 12.3333 84.9766 12.8438C85.138 13.349 85.2188 13.9115 85.2188 14.5312V15.4688H78.5V13.9688H83.0078V13.7969C83.0078 13.4844 82.9505 13.2057 82.8359 12.9609C82.7266 12.7109 82.5599 12.513 82.3359 12.3672C82.112 12.2214 81.8255 12.1484 81.4766 12.1484C81.1797 12.1484 80.9245 12.2135 80.7109 12.3438C80.4974 12.474 80.3229 12.6562 80.1875 12.8906C80.0573 13.125 79.9583 13.401 79.8906 13.7188C79.8281 14.0312 79.7969 14.375 79.7969 14.75V15.0625C79.7969 15.401 79.8438 15.7135 79.9375 16C80.0365 16.2865 80.1745 16.5339 80.3516 16.7422C80.5339 16.9505 80.7526 17.112 81.0078 17.2266C81.2682 17.3411 81.5625 17.3984 81.8906 17.3984C82.2969 17.3984 82.6745 17.3203 83.0234 17.1641C83.3776 17.0026 83.6823 16.7604 83.9375 16.4375L85.0312 17.625C84.8542 17.8802 84.612 18.125 84.3047 18.3594C84.0026 18.5938 83.638 18.7865 83.2109 18.9375C82.7839 19.0833 82.2969 19.1562 81.75 19.1562ZM88.75 12.3906V19H86.5V10.5469H88.6172L88.75 12.3906ZM91.2969 10.4922L91.2578 12.5781C91.1484 12.5625 91.0156 12.5495 90.8594 12.5391C90.7083 12.5234 90.5703 12.5156 90.4453 12.5156C90.1276 12.5156 89.8516 12.5573 89.6172 12.6406C89.388 12.7188 89.1953 12.8359 89.0391 12.9922C88.888 13.1484 88.7734 13.3385 88.6953 13.5625C88.6224 13.7865 88.5807 14.0417 88.5703 14.3281L88.1172 14.1875C88.1172 13.6406 88.1719 13.138 88.2812 12.6797C88.3906 12.2161 88.5495 11.8125 88.7578 11.4688C88.9714 11.125 89.2318 10.8594 89.5391 10.6719C89.8464 10.4844 90.1979 10.3906 90.5938 10.3906C90.7188 10.3906 90.8464 10.401 90.9766 10.4219C91.1068 10.4375 91.2135 10.4609 91.2969 10.4922ZM95.0078 18.0469L97.25 10.5469H99.6641L96.2656 20.2734C96.1927 20.487 96.0938 20.7161 95.9688 20.9609C95.849 21.2057 95.6849 21.4375 95.4766 21.6562C95.2734 21.8802 95.0156 22.0625 94.7031 22.2031C94.3958 22.3438 94.0182 22.4141 93.5703 22.4141C93.3568 22.4141 93.1823 22.401 93.0469 22.375C92.9115 22.349 92.75 22.3125 92.5625 22.2656V20.6172C92.6198 20.6172 92.6797 20.6172 92.7422 20.6172C92.8047 20.6224 92.8646 20.625 92.9219 20.625C93.2188 20.625 93.4609 20.5911 93.6484 20.5234C93.8359 20.4557 93.987 20.3516 94.1016 20.2109C94.2161 20.0755 94.3073 19.8984 94.375 19.6797L95.0078 18.0469ZM94.0703 10.5469L95.9062 16.6719L96.2266 19.0547L94.6953 19.2188L91.6562 10.5469H94.0703ZM113.945 7.625V19H111.602L107.031 11.375V19H104.688V7.625H107.031L111.609 15.2578V7.625H113.945ZM119.734 19.1562C119.078 19.1562 118.49 19.0521 117.969 18.8438C117.448 18.6302 117.005 18.3359 116.641 17.9609C116.281 17.5859 116.005 17.151 115.812 16.6562C115.62 16.1562 115.523 15.625 115.523 15.0625V14.75C115.523 14.1094 115.615 13.5234 115.797 12.9922C115.979 12.4609 116.24 12 116.578 11.6094C116.922 11.2188 117.339 10.9193 117.828 10.7109C118.318 10.4974 118.87 10.3906 119.484 10.3906C120.083 10.3906 120.615 10.4896 121.078 10.6875C121.542 10.8854 121.93 11.1667 122.242 11.5312C122.56 11.8958 122.799 12.3333 122.961 12.8438C123.122 13.349 123.203 13.9115 123.203 14.5312V15.4688H116.484V13.9688H120.992V13.7969C120.992 13.4844 120.935 13.2057 120.82 12.9609C120.711 12.7109 120.544 12.513 120.32 12.3672C120.096 12.2214 119.81 12.1484 119.461 12.1484C119.164 12.1484 118.909 12.2135 118.695 12.3438C118.482 12.474 118.307 12.6562 118.172 12.8906C118.042 13.125 117.943 13.401 117.875 13.7188C117.812 14.0312 117.781 14.375 117.781 14.75V15.0625C117.781 15.401 117.828 15.7135 117.922 16C118.021 16.2865 118.159 16.5339 118.336 16.7422C118.518 16.9505 118.737 17.112 118.992 17.2266C119.253 17.3411 119.547 17.3984 119.875 17.3984C120.281 17.3984 120.659 17.3203 121.008 17.1641C121.362 17.0026 121.667 16.7604 121.922 16.4375L123.016 17.625C122.839 17.8802 122.596 18.125 122.289 18.3594C121.987 18.5938 121.622 18.7865 121.195 18.9375C120.768 19.0833 120.281 19.1562 119.734 19.1562ZM126.297 10.5469L127.695 13.1172L129.133 10.5469H131.531L129.141 14.6797L131.641 19H129.234L127.711 16.2812L126.188 19H123.781L126.281 14.6797L123.891 10.5469H126.297ZM137.625 16.9766V10.5469H139.875V19H137.758L137.625 16.9766ZM137.875 15.2422L138.539 15.2266C138.539 15.7891 138.474 16.3125 138.344 16.7969C138.214 17.276 138.018 17.6927 137.758 18.0469C137.497 18.3958 137.169 18.6693 136.773 18.8672C136.378 19.0599 135.911 19.1562 135.375 19.1562C134.964 19.1562 134.583 19.099 134.234 18.9844C133.891 18.8646 133.594 18.6797 133.344 18.4297C133.099 18.1745 132.906 17.849 132.766 17.4531C132.63 17.0521 132.562 16.5703 132.562 16.0078V10.5469H134.812V16.0234C134.812 16.2734 134.841 16.4844 134.898 16.6562C134.961 16.8281 135.047 16.9688 135.156 17.0781C135.266 17.1875 135.393 17.2656 135.539 17.3125C135.69 17.3594 135.857 17.3828 136.039 17.3828C136.503 17.3828 136.867 17.2891 137.133 17.1016C137.404 16.9141 137.594 16.6589 137.703 16.3359C137.818 16.0078 137.875 15.6432 137.875 15.2422ZM146.164 16.6641C146.164 16.5026 146.117 16.3568 146.023 16.2266C145.93 16.0964 145.755 15.9766 145.5 15.8672C145.25 15.7526 144.888 15.6484 144.414 15.5547C143.987 15.4609 143.589 15.3438 143.219 15.2031C142.854 15.0573 142.536 14.8828 142.266 14.6797C142 14.4766 141.792 14.237 141.641 13.9609C141.49 13.6797 141.414 13.3594 141.414 13C141.414 12.6458 141.49 12.3125 141.641 12C141.797 11.6875 142.018 11.4115 142.305 11.1719C142.596 10.9271 142.951 10.737 143.367 10.6016C143.789 10.4609 144.263 10.3906 144.789 10.3906C145.523 10.3906 146.154 10.5078 146.68 10.7422C147.211 10.9766 147.617 11.2995 147.898 11.7109C148.185 12.1172 148.328 12.5807 148.328 13.1016H146.078C146.078 12.8828 146.031 12.6875 145.938 12.5156C145.849 12.3385 145.708 12.2005 145.516 12.1016C145.328 11.9974 145.083 11.9453 144.781 11.9453C144.531 11.9453 144.315 11.9896 144.133 12.0781C143.951 12.1615 143.81 12.276 143.711 12.4219C143.617 12.5625 143.57 12.7188 143.57 12.8906C143.57 13.0208 143.596 13.138 143.648 13.2422C143.706 13.3411 143.797 13.4323 143.922 13.5156C144.047 13.599 144.208 13.6771 144.406 13.75C144.609 13.8177 144.859 13.8802 145.156 13.9375C145.766 14.0625 146.31 14.2266 146.789 14.4297C147.268 14.6276 147.648 14.8984 147.93 15.2422C148.211 15.5807 148.352 16.026 148.352 16.5781C148.352 16.9531 148.268 17.2969 148.102 17.6094C147.935 17.9219 147.695 18.1953 147.383 18.4297C147.07 18.6589 146.695 18.8385 146.258 18.9688C145.826 19.0938 145.339 19.1562 144.797 19.1562C144.01 19.1562 143.344 19.0156 142.797 18.7344C142.255 18.4531 141.844 18.0964 141.562 17.6641C141.286 17.2266 141.148 16.7786 141.148 16.3203H143.281C143.292 16.6276 143.37 16.875 143.516 17.0625C143.667 17.25 143.857 17.3854 144.086 17.4688C144.32 17.5521 144.573 17.5938 144.844 17.5938C145.135 17.5938 145.378 17.5547 145.57 17.4766C145.763 17.3932 145.909 17.2839 146.008 17.1484C146.112 17.0078 146.164 16.8464 146.164 16.6641Z" fill="#0B0D17"/>
</svg>
