<svg width="165" height="45" viewBox="0 0 165 45" fill="none" xmlns="http://www.w3.org/2000/svg">
<path d="M22.6625 28.4728L14.4352 33.8173C13.189 34.6269 12.8348 36.2938 13.6441 37.5405C14.4436 38.772 16.0794 39.1327 17.3204 38.3609L22.4318 34.8672L26.9467 31.7753C27.0186 31.7273 27.0903 31.6803 27.1619 31.6341L27.3897 31.4783C27.5199 31.3894 27.6546 31.3124 27.7928 31.2472C27.9045 31.1822 28.0159 31.1195 28.1268 31.0591C30.8294 29.5853 34.2147 30.5823 35.6879 33.2858C36.9784 35.654 36.3892 38.6067 34.2886 40.2976C34.6188 39.5051 34.565 38.5684 34.0623 37.794C33.2628 36.5625 31.6269 36.2017 30.3859 36.9736L25.2746 40.4673L20.7596 43.5592C20.7169 43.587 20.674 43.6143 20.631 43.6412L20.3166 43.8561C20.0522 44.0369 19.7686 44.1682 19.4768 44.2521C15.5462 45.9778 10.8325 44.6536 8.41844 40.9352C5.90781 37.0679 6.774 31.9809 10.2799 29.1432C8.61429 28.4984 7.03543 27.5448 5.62896 26.278C-0.562622 20.7013 -1.06877 11.1666 4.49844 4.98159C10.0657 -1.2034 19.598 -1.69652 25.7896 3.88019C31.9812 9.45689 32.4874 18.9916 26.9201 25.1766C25.6726 26.5626 24.226 27.6627 22.6625 28.4728ZM21.865 20.7446C25.0609 17.1685 24.7703 11.6555 21.2161 8.43103C17.6618 5.20657 12.1897 5.49169 8.99388 9.06786C5.79802 12.644 6.08858 18.157 9.64285 21.3815C13.1971 24.6059 18.6692 24.3208 21.865 20.7446Z" fill="#0B0D17"/>
<path d="M53.2072 10.994V14H55.0972V14.9L54.9892 15.008C54.8452 15.152 54.2512 15.35 53.3872 15.35C51.8932 15.35 50.8132 14.216 50.8132 12.29C50.8132 10.364 51.8932 9.23 53.3872 9.23C54.3412 9.23 55.1872 9.59 55.9072 10.31L58.6072 8.06C58.2472 7.7 56.7892 5.9 53.3872 5.9C49.9852 5.9 46.7272 7.88 46.7272 12.29C46.7092 16.7 49.9672 18.698 53.2972 18.698C54.5752 18.698 55.7632 18.446 56.4652 18.176C56.8072 18.05 57.1852 17.852 57.5632 17.6C57.9592 17.348 58.2292 17.15 58.3732 17.024C58.5352 16.898 58.7512 16.7 59.0572 16.43V10.994H53.2072ZM67.8994 9.284C67.7734 9.212 67.4494 9.14 67.0714 9.14C66.0814 9.14 65.3074 9.59 64.7674 10.49L64.8214 9.32H60.7714V18.5H64.8214V14.9C64.8214 14.162 64.9474 13.64 65.1814 13.334C65.4694 12.938 65.8834 12.74 66.4414 12.74C66.8554 12.74 67.2514 12.83 67.6114 13.01H67.7914L67.9714 9.32L67.8994 9.284ZM71.0751 8.996C72.3891 8.996 73.2351 8.24 73.2351 7.07C73.2351 5.9 72.3891 5.144 71.0751 5.144C69.7791 5.144 68.9151 5.9 68.9151 7.07C68.9151 8.24 69.7791 8.996 71.0751 8.996ZM69.0591 9.32V18.5H73.1091V9.32H69.0591ZM84.8935 13.1C84.8935 10.598 83.9935 9.14 81.4735 9.14C80.3755 9.14 79.5295 9.59 78.8995 10.49L78.9535 9.32H74.9035V18.5H78.9535V14C78.9535 12.938 79.1155 12.416 79.8895 12.416C80.6815 12.416 80.8435 12.938 80.8435 14V18.5H84.8935V13.1ZM93.0266 6.08V8.69C93.0266 9.176 93.0446 9.644 93.0626 10.13L92.8286 9.896C92.4866 9.554 91.5506 9.14 90.4166 9.14C89.1386 9.14 88.1126 9.59 87.3386 10.508C86.5646 11.408 86.1866 12.542 86.1866 13.928C86.1866 15.314 86.5646 16.448 87.3386 17.366C88.1126 18.266 89.1386 18.716 90.4166 18.716C91.7126 18.716 92.6666 18.32 93.2966 17.51L93.2426 18.5H97.0766V6.08H93.0266ZM93.1526 13.874C93.1526 14.864 92.5226 15.44 91.7126 15.44C90.9206 15.44 90.2726 14.864 90.2726 13.874C90.2726 13.388 90.4166 12.992 90.6866 12.722C91.5146 11.84 93.2426 12.362 93.1526 13.874ZM108.545 13.73C108.545 12.344 108.095 11.228 107.195 10.4C106.313 9.554 105.143 9.14 103.685 9.14C102.173 9.14 100.931 9.554 99.9405 10.4C98.9505 11.246 98.4645 12.416 98.4645 13.928C98.4645 15.458 98.9505 16.628 99.9045 17.474C100.877 18.302 102.119 18.716 103.631 18.716C105.467 18.716 106.979 18.212 108.185 17.222L108.275 17.15L106.745 15.17C106.025 15.656 105.179 15.89 104.225 15.89C103.163 15.89 102.587 15.548 102.461 14.864H108.491L108.545 13.73ZM102.461 12.74C102.515 12.092 102.983 11.66 103.631 11.66C104.297 11.66 104.747 12.092 104.801 12.74H102.461ZM116.967 9.284C116.841 9.212 116.517 9.14 116.139 9.14C115.149 9.14 114.375 9.59 113.835 10.49L113.889 9.32H109.839V18.5H113.889V14.9C113.889 14.162 114.015 13.64 114.249 13.334C114.537 12.938 114.951 12.74 115.509 12.74C115.923 12.74 116.319 12.83 116.679 13.01H116.859L117.039 9.32L116.967 9.284ZM122.933 14.09L121.457 9.32H117.227L120.827 18.14C120.737 18.572 120.503 18.68 120.017 18.68C119.531 18.68 119.117 18.59 118.757 18.41L117.947 21.29L118.307 21.416C118.811 21.614 120.053 21.83 121.277 21.83C122.213 21.83 122.933 21.56 123.419 21.038C123.905 20.516 124.373 19.724 124.787 18.68L128.567 9.32H124.427L122.933 14.09Z" fill="#0B0D17"/>
<path d="M55.1872 24.08V28.76C55.1872 29.354 55.2232 30.11 55.2772 31.01L51.6772 24.08H47.2672V36.5H51.2272V31.82C51.2272 31.226 51.1912 30.47 51.1372 29.57L54.9172 36.5H59.1472V24.08H55.1872ZM70.753 31.73C70.753 30.344 70.303 29.228 69.403 28.4C68.521 27.554 67.351 27.14 65.893 27.14C64.381 27.14 63.139 27.554 62.149 28.4C61.159 29.246 60.673 30.416 60.673 31.928C60.673 33.458 61.159 34.628 62.113 35.474C63.085 36.302 64.327 36.716 65.839 36.716C67.675 36.716 69.187 36.212 70.393 35.222L70.483 35.15L68.953 33.17C68.233 33.656 67.387 33.89 66.433 33.89C65.371 33.89 64.795 33.548 64.669 32.864H70.699L70.753 31.73ZM64.669 30.74C64.723 30.092 65.191 29.66 65.839 29.66C66.505 29.66 66.955 30.092 67.009 30.74H64.669ZM82.4938 27.32H77.9037L76.7697 29.57L75.6537 27.32H71.0637L74.3397 31.73L70.7037 36.5H75.2937L76.7697 34.07L78.2637 36.5H82.8537L79.1997 31.73L82.4938 27.32ZM89.2755 27.32V32.18C89.2755 32.99 88.9875 33.404 88.4295 33.404C87.8535 33.404 87.5655 32.99 87.5655 32.18V27.32H83.5155V32.9C83.5155 34.07 83.7495 34.97 84.1995 35.6C84.7215 36.338 85.6215 36.716 86.8995 36.716C87.8895 36.716 88.7355 36.374 89.4195 35.69L89.4555 36.5H93.3255V27.32H89.2755ZM102.903 33.62C102.903 32.774 102.651 32.108 102.147 31.604C101.841 31.298 101.391 31.028 100.833 30.794C100.671 30.722 100.239 30.578 99.5368 30.38C98.8708 30.2 98.5468 30.038 98.5468 29.894C98.5468 29.696 98.7088 29.588 99.0508 29.588C99.8968 29.588 100.779 29.876 101.697 30.452L102.795 28.184C101.697 27.482 100.401 27.122 98.9068 27.122C97.7728 27.122 96.8548 27.41 96.1168 27.968C95.3968 28.526 95.0368 29.264 95.0368 30.2C95.0368 31.478 95.6128 32.324 96.7468 32.72C97.0528 32.846 97.4128 32.954 97.8268 33.08C97.8448 33.08 98.3308 33.206 98.5288 33.278L98.9068 33.422C99.2128 33.512 99.3568 33.638 99.3568 33.764C99.3568 33.962 99.1768 34.052 98.8348 34.052C98.5468 34.052 98.0608 33.998 97.1248 33.692C96.6568 33.53 96.2248 33.332 95.8468 33.08L94.4788 35.456C95.5948 36.302 97.0168 36.734 98.7268 36.734C99.9868 36.734 100.977 36.464 101.697 35.924C102.507 35.33 102.903 34.556 102.903 33.62Z" fill="#8C30F5"/>
</svg>
