<svg width="24" height="24" viewBox="0 0 24 24" fill="none" xmlns="http://www.w3.org/2000/svg">
<g clip-path="url(#clip0_3441_4025)">
<path fill-rule="evenodd" clip-rule="evenodd" d="M24 12C24 11.4477 23.5523 11 23 11H13C12.4477 11 12 11.4477 12 12C12 12.5523 12.4477 13 13 13H23C23.5523 13 24 12.5523 24 12Z" fill="#0B0D17"/>
<path fill-rule="evenodd" clip-rule="evenodd" d="M18.629 7.62895C18.2384 8.01948 18.2384 8.65264 18.629 9.04317L21.5858 12L18.629 14.9568C18.2384 15.3473 18.2384 15.9805 18.629 16.371C19.0195 16.7615 19.6527 16.7615 20.0432 16.371L23.7071 12.7071C24.0976 12.3166 24.0976 11.6834 23.7071 11.2929L20.0432 7.62895C19.6527 7.23843 19.0195 7.23843 18.629 7.62895Z" fill="#0B0D17"/>
<path fill-rule="evenodd" clip-rule="evenodd" d="M14 2C14 0.89543 13.1046 0 12 0C11.6486 0 11.3002 0.0151607 10.9556 0.0449393L11.2999 4.03009C11.5302 4.01019 11.7637 4 12 4C13.1046 4 14 3.10457 14 2ZM7.41239 5.44504C7.79218 5.17862 8.19579 4.94462 8.61921 4.74683L6.92635 1.12272C6.28992 1.42 5.68428 1.77125 5.11526 2.17041L7.41239 5.44504ZM4.74683 8.61921C4.94462 8.1958 5.17862 7.79218 5.44504 7.41239L2.17041 5.11526C1.77125 5.68428 1.42 6.28992 1.12272 6.92635L4.74683 8.61921ZM4 12C4 11.7637 4.01019 11.5302 4.03009 11.2999L0.044939 10.9556C0.0151606 11.3002 0 11.6486 0 12C0 12.3514 0.0151606 12.6998 0.044939 13.0444L4.03009 12.7001C4.01019 12.4698 4 12.2363 4 12ZM5.44504 16.5876C5.17862 16.2078 4.94462 15.8042 4.74683 15.3808L1.12272 17.0737C1.42 17.7101 1.77125 18.3157 2.17041 18.8847L5.44504 16.5876ZM8.61921 19.2532C8.19579 19.0554 7.79218 18.8214 7.41239 18.555L5.11526 21.8296C5.68428 22.2288 6.28992 22.58 6.92635 22.8773L8.61921 19.2532ZM12 20C11.7637 20 11.5302 19.9898 11.2999 19.9699L10.9556 23.9551C11.3002 23.9848 11.6486 24 12 24C13.1046 24 14 23.1046 14 22C14 20.8954 13.1046 20 12 20Z" fill="#0B0D17"/>
</g>
<defs>
<clipPath id="clip0_3441_4025">
<rect width="24" height="24" fill="white"/>
</clipPath>
</defs>
</svg>
