<svg width="16" height="16" viewBox="0 0 16 16" fill="none" xmlns="http://www.w3.org/2000/svg">
<path d="M14.9999 12C14.8685 12 14.7384 11.9741 14.6171 11.9237C14.4957 11.8734 14.3854 11.7996 14.2926 11.7067L9.1786 6.59268C9.02383 6.43787 8.84008 6.31506 8.63784 6.23127C8.4356 6.14749 8.21884 6.10437 7.99993 6.10437C7.78103 6.10437 7.56426 6.14749 7.36203 6.23127C7.15979 6.31506 6.97604 6.43787 6.82127 6.59268L1.71327 11.7007C1.52466 11.8828 1.27206 11.9836 1.00987 11.9813C0.747669 11.9791 0.496856 11.8739 0.311448 11.6885C0.12604 11.5031 0.0208709 11.2523 0.0185925 10.9901C0.0163141 10.7279 0.117108 10.4753 0.299267 10.2867L5.40727 5.17868C6.09533 4.49189 7.02777 4.10617 7.99993 4.10617C8.9721 4.10617 9.90454 4.49189 10.5926 5.17868L15.7073 10.2933C15.847 10.4332 15.9421 10.6114 15.9806 10.8053C16.0191 10.9993 15.9992 11.2002 15.9235 11.3829C15.8478 11.5655 15.7197 11.7216 15.5553 11.8315C15.3909 11.9413 15.1976 12 14.9999 12Z" fill="#979797"/>
</svg>
