<svg width="16" height="16" viewBox="0 0 16 16" fill="none" xmlns="http://www.w3.org/2000/svg">
<path d="M9.7461 7.39202L10.8559 5.50875L13.8475 10.1682L13.8489 11.0624L13.8392 4.90918C13.8321 4.75877 13.7522 4.62118 13.6248 4.54003L8.23889 1.44198C8.11297 1.38003 7.95313 1.38075 7.82737 1.44394C7.81037 1.45241 7.79437 1.46168 7.77918 1.4718L7.76038 1.4836L2.53255 4.51307L2.51229 4.52229C2.4862 4.53427 2.45981 4.54953 2.43509 4.56724C2.33595 4.6383 2.27014 4.74343 2.24885 4.86134C2.24564 4.87921 2.24328 4.89739 2.24219 4.91578L2.25041 9.93004L5.03686 5.61113C5.38771 5.03846 6.15204 4.85399 6.86161 4.86402L7.69439 4.88599L2.78746 12.7553L3.36589 13.0883L8.33156 4.89399L10.5264 4.88602L5.57355 13.2871L7.63755 14.4743L7.88415 14.6161C7.98846 14.6585 8.11145 14.6607 8.21663 14.6226L13.6782 11.4576L12.634 12.0626L9.7461 7.39202ZM10.1695 13.4909L8.08487 10.219L9.35743 8.05963L12.0952 12.3749L10.1695 13.4909Z" fill="#2D374B"/>
<path d="M8.08594 10.219L10.1705 13.4909L12.0963 12.3749L9.35847 8.0596L8.08594 10.219Z" fill="#28A0F0"/>
<path d="M13.8489 11.0624L13.8475 10.1682L10.8559 5.50873L9.74609 7.392L12.634 12.0626L13.6782 11.4575C13.7806 11.3743 13.8426 11.2523 13.8491 11.1206L13.8489 11.0624Z" fill="#28A0F0"/>
<path d="M1.3125 11.9056L2.78702 12.7553L7.69392 4.88604L6.86114 4.86406C6.15157 4.85404 5.38721 5.03851 5.03639 5.61118L2.24993 9.93009L1.3125 11.3704V11.9056Z" fill="white"/>
<path d="M10.5277 4.88602L8.33285 4.89399L3.36719 13.0883L5.10284 14.0876L5.57485 13.2871L10.5277 4.88602Z" fill="white"/>
<path d="M14.7734 4.87473C14.7551 4.41571 14.5065 3.99551 14.1172 3.75087L8.66073 0.612971C8.27564 0.419072 7.79459 0.418823 7.40881 0.612846C7.36321 0.63585 2.10251 3.68684 2.10251 3.68684C2.0297 3.72177 1.95957 3.76335 1.89361 3.81057C1.54609 4.05963 1.33426 4.44668 1.3125 4.8719V11.3704L2.24993 9.93008L2.24175 4.91582C2.24283 4.89748 2.24514 4.87943 2.24841 4.86162C2.26961 4.74365 2.33547 4.6384 2.43465 4.56727C2.45939 4.54956 7.80996 1.45244 7.82696 1.44394C7.95272 1.38078 8.11256 1.38004 8.23848 1.44198L13.6244 4.53997C13.7518 4.62113 13.8317 4.75871 13.8388 4.90913V11.1206C13.8323 11.2523 13.7802 11.3743 13.6778 11.4575L12.6336 12.0626L12.0948 12.3748L10.1691 13.4909L8.21619 14.6226C8.11101 14.6606 7.98802 14.6585 7.88371 14.6161L5.57311 13.2871L5.10111 14.0876L7.17756 15.2831C7.24623 15.3222 7.30739 15.3568 7.3576 15.385C7.43533 15.4286 7.48831 15.4577 7.50702 15.4668C7.6546 15.5385 7.86696 15.5802 8.05831 15.5802C8.23375 15.5802 8.40483 15.548 8.56669 15.4846L14.2391 12.1996C14.5646 11.9473 14.7562 11.5669 14.7734 11.1548V4.87473Z" fill="#96BEDC"/>
</svg>
