<svg width="12" height="12" viewBox="0 0 12 12" fill="none" xmlns="http://www.w3.org/2000/svg">
<g clip-path="url(#clip0_3451_22261)">
<path d="M9.56162 9.197L11.5211 7.2375C11.8393 6.90407 12.0168 6.46089 12.0168 6C12.0168 5.53911 11.8393 5.09593 11.5211 4.7625L9.56162 2.803C9.42099 2.6623 9.23023 2.58323 9.0313 2.58319C8.83237 2.58314 8.64157 2.66212 8.50087 2.80275C8.36018 2.94338 8.28111 3.13414 8.28106 3.33307C8.28101 3.532 8.35999 3.7228 8.50062 3.8635L9.89062 5.254L0.765625 5.2655C0.566713 5.2655 0.375947 5.34452 0.235295 5.48517C0.0946426 5.62582 0.015625 5.81659 0.015625 6.0155C0.015625 6.21441 0.0946426 6.40518 0.235295 6.54583C0.375947 6.68648 0.566713 6.7655 0.765625 6.7655L9.88112 6.754L8.50062 8.1365C8.36401 8.27795 8.28841 8.46741 8.29012 8.66405C8.29183 8.8607 8.3707 9.04881 8.50976 9.18787C8.64882 9.32692 8.83693 9.4058 9.03357 9.40751C9.23022 9.40922 9.41967 9.33362 9.56112 9.197H9.56162Z" fill="#0B0D17"/>
</g>
<defs>
<clipPath id="clip0_3451_22261">
<rect width="12" height="12" fill="white"/>
</clipPath>
</defs>
</svg>
