<svg width="16" height="16" viewBox="0 0 16 16" fill="none" xmlns="http://www.w3.org/2000/svg">
<path d="M11.9493 1.00334C11.949 1.26846 11.8435 1.52265 11.6559 1.71L6.54125 6.82467C6.38644 6.97944 6.26363 7.16319 6.17985 7.36543C6.09606 7.56767 6.05294 7.78443 6.05294 8.00334C6.05294 8.22225 6.09606 8.43901 6.17985 8.64124C6.26363 8.84348 6.38644 9.02723 6.54125 9.182L11.6493 14.29C11.8314 14.4786 11.9322 14.7312 11.9299 14.9934C11.9276 15.2556 11.8225 15.5064 11.6371 15.6918C11.4517 15.8772 11.2008 15.9824 10.9387 15.9847C10.6765 15.987 10.4239 15.8862 10.2353 15.704L5.12725 10.6C4.44043 9.91183 4.05469 8.97928 4.05469 8.007C4.05469 7.03473 4.44043 6.10218 5.12725 5.414L10.2419 0.296004C10.3818 0.15606 10.56 0.0607466 10.754 0.0221239C10.9481 -0.0164989 11.1492 0.00330524 11.332 0.0790302C11.5148 0.154755 11.671 0.282998 11.7809 0.44753C11.8907 0.612063 11.9493 0.80549 11.9493 1.00334Z" fill="#8C30F5"/>
</svg>
