<svg width="16" height="16" viewBox="0 0 16 16" fill="none" xmlns="http://www.w3.org/2000/svg">
<path d="M3.80469 7.138L7.52869 10.862C7.65371 10.987 7.82325 11.0572 8.00002 11.0572C8.1768 11.0572 8.34634 10.987 8.47135 10.862L12.1954 7.138C12.2886 7.04477 12.352 6.92599 12.3777 6.79669C12.4035 6.66739 12.3903 6.53336 12.3398 6.41156C12.2894 6.28976 12.2039 6.18565 12.0943 6.1124C11.9847 6.03914 11.8559 6.00003 11.724 6H4.27602C4.14419 6.00003 4.01532 6.03914 3.90572 6.1124C3.79611 6.18565 3.71068 6.28976 3.66024 6.41156C3.60979 6.53336 3.59659 6.66739 3.6223 6.79669C3.64801 6.92599 3.71148 7.04477 3.80469 7.138Z" fill="#ffffff"/>
</svg>
