<svg width="24" height="24" viewBox="0 0 24 24" fill="none" xmlns="http://www.w3.org/2000/svg">
<circle cx="12" cy="12" r="12" fill="#00B674"/>
<path d="M9.90016 16.7125C9.73299 16.7126 9.56744 16.6797 9.413 16.6157C9.25857 16.5517 9.11827 16.4578 9.00016 16.3395L6.27916 13.6195C6.13856 13.4789 6.05957 13.2881 6.05957 13.0893C6.05957 12.8904 6.13856 12.6997 6.27916 12.559C6.41981 12.4184 6.61054 12.3394 6.80941 12.3394C7.00828 12.3394 7.19901 12.4184 7.33966 12.559L9.90016 15.1195L16.6742 8.34551C16.8148 8.2049 17.0055 8.12592 17.2044 8.12592C17.4033 8.12592 17.594 8.2049 17.7347 8.34551C17.8753 8.48615 17.9543 8.67688 17.9543 8.87576C17.9543 9.07463 17.8753 9.26536 17.7347 9.40601L10.8002 16.3395C10.682 16.4578 10.5418 16.5517 10.3873 16.6157C10.2329 16.6797 10.0673 16.7126 9.90016 16.7125Z" fill="white"/>
</svg>
