<svg width="16" height="16" viewBox="0 0 16 16" fill="none" xmlns="http://www.w3.org/2000/svg">
<g clip-path="url(#clip0_2596_23062)">
<path d="M4.01544 9.65001L6.4061 12.0407C6.5937 12.2282 6.8481 12.3335 7.11334 12.3334C7.37858 12.3334 7.63293 12.2279 7.82044 12.0403C8.00795 11.8527 8.11325 11.5983 8.11319 11.3331C8.11313 11.0679 8.0077 10.8135 7.8201 10.626L6.19677 9.00001H14.3301C14.5953 9.00001 14.8497 8.89465 15.0372 8.70712C15.2247 8.51958 15.3301 8.26523 15.3301 8.00001C15.3301 7.73479 15.2247 7.48044 15.0372 7.2929C14.8497 7.10537 14.5953 7.00001 14.3301 7.00001H6.19677L7.82277 5.37401C8.01037 5.18615 8.11565 4.93146 8.11547 4.66597C8.11528 4.40048 8.00963 4.14594 7.82177 3.95834C7.63391 3.77075 7.37922 3.66546 7.11373 3.66565C6.84824 3.66584 6.5937 3.77148 6.4061 3.95934L4.01544 6.35001C3.57862 6.78803 3.33331 7.3814 3.33331 8.00001C3.33331 8.61862 3.57862 9.21199 4.01544 9.65001Z" fill="#979797"/>
<path d="M-6.56953e-07 0.970667L-4.37114e-08 15C-3.21184e-08 15.2652 0.105357 15.5196 0.292894 15.7071C0.48043 15.8946 0.734784 16 1 16C1.26522 16 1.51957 15.8946 1.70711 15.7071C1.89464 15.5196 2 15.2652 2 15L2 0.970667C2 0.705451 1.89464 0.451097 1.70711 0.263561C1.51957 0.0760249 1.26522 -0.0293332 0.999999 -0.0293332C0.734783 -0.0293331 0.480429 0.076025 0.292893 0.263561C0.105357 0.451097 -6.68546e-07 0.705451 -6.56953e-07 0.970667Z" fill="#979797"/>
</g>
<defs>
<clipPath id="clip0_2596_23062">
<rect width="16" height="16" fill="white"/>
</clipPath>
</defs>
</svg>
