<svg width="20" height="21" viewBox="0 0 20 21" fill="none" xmlns="http://www.w3.org/2000/svg">
<g clip-path="url(#clip0_3258_2692)">
<path d="M10.8337 17.1667C11.9383 17.1654 12.9974 16.7259 13.7785 15.9448C14.5596 15.1637 14.999 14.1047 15.0003 13V5.70251C15.0016 5.26448 14.916 4.83055 14.7483 4.42586C14.5807 4.02118 14.3343 3.6538 14.0237 3.34501L12.1553 1.47668C11.8465 1.16599 11.4792 0.919684 11.0745 0.752031C10.6698 0.584379 10.2359 0.498718 9.79783 0.500014H5.83366C4.729 0.501338 3.66996 0.940749 2.88884 1.72186C2.10773 2.50298 1.66832 3.56202 1.66699 4.66668V13C1.66832 14.1047 2.10773 15.1637 2.88884 15.9448C3.66996 16.7259 4.729 17.1654 5.83366 17.1667H10.8337ZM3.33366 13V4.66668C3.33366 4.00364 3.59705 3.36776 4.06589 2.89891C4.53473 2.43007 5.17062 2.16668 5.83366 2.16668C5.83366 2.16668 9.93283 2.17835 10.0003 2.18668V3.83335C10.0003 4.27538 10.1759 4.6993 10.4885 5.01186C10.801 5.32442 11.225 5.50001 11.667 5.50001H13.3137C13.322 5.56751 13.3337 13 13.3337 13C13.3337 13.6631 13.0703 14.2989 12.6014 14.7678C12.1326 15.2366 11.4967 15.5 10.8337 15.5H5.83366C5.17062 15.5 4.53473 15.2366 4.06589 14.7678C3.59705 14.2989 3.33366 13.6631 3.33366 13ZM18.3337 7.16668V16.3333C18.3323 17.438 17.8929 18.4971 17.1118 19.2782C16.3307 20.0593 15.2717 20.4987 14.167 20.5H6.66699C6.44598 20.5 6.23402 20.4122 6.07774 20.2559C5.92146 20.0997 5.83366 19.8877 5.83366 19.6667C5.83366 19.4457 5.92146 19.2337 6.07774 19.0774C6.23402 18.9211 6.44598 18.8333 6.66699 18.8333H14.167C14.83 18.8333 15.4659 18.57 15.9348 18.1011C16.4036 17.6323 16.667 16.9964 16.667 16.3333V7.16668C16.667 6.94567 16.7548 6.73371 16.9111 6.57743C17.0674 6.42115 17.2793 6.33335 17.5003 6.33335C17.7213 6.33335 17.9333 6.42115 18.0896 6.57743C18.2459 6.73371 18.3337 6.94567 18.3337 7.16668Z" fill="#0B0D17"/>
</g>
<defs>
<clipPath id="clip0_3258_2692">
<rect width="20" height="20" fill="white" transform="translate(0 0.5)"/>
</clipPath>
</defs>
</svg>
