<svg width="12" height="12" viewBox="0 0 12 12" fill="none" xmlns="http://www.w3.org/2000/svg">
<path fill-rule="evenodd" clip-rule="evenodd" d="M0.5 12C0.776142 12 1 11.7761 1 11.5V11.1C1 10.4925 1.49249 10 2.1 10H9.9C10.5075 10 11 10.4925 11 11.1V11.5C11 11.7761 11.2239 12 11.5 12C11.7761 12 12 11.7761 12 11.5V11.1C12 9.9402 11.0598 9 9.9 9H2.1C0.940202 9 0 9.9402 0 11.1V11.5C0 11.7761 0.223858 12 0.5 12Z" fill="#8C30F5"/>
<path fill-rule="evenodd" clip-rule="evenodd" d="M2 11.5C2 11.2239 2.22386 11 2.5 11H9.5C9.77614 11 10 11.2239 10 11.5C10 11.7761 9.77614 12 9.5 12H2.5C2.22386 12 2 11.7761 2 11.5Z" fill="#8C30F5"/>
<path fill-rule="evenodd" clip-rule="evenodd" d="M3.13761 5.15536C3.33287 4.9601 3.64946 4.9601 3.84472 5.15536L5.66426 6.9749C5.85952 7.17016 6.1761 7.17016 6.37136 6.9749L8.1909 5.15536C8.38617 4.96009 8.70275 4.96009 8.89801 5.15536C9.09327 5.35062 9.09327 5.6672 8.89801 5.86246L7.07847 7.682C6.49269 8.26779 5.54294 8.26779 4.95715 7.682L3.13761 5.86246C2.94235 5.6672 2.94235 5.35062 3.13761 5.15536Z" fill="#8C30F5"/>
<path fill-rule="evenodd" clip-rule="evenodd" d="M1.5 0.5C1.5 0.223858 1.72386 0 2 0H2.5C4.70914 0 6.5 1.79086 6.5 4V7C6.5 7.27614 6.27614 7.5 6 7.5C5.72386 7.5 5.5 7.27614 5.5 7V4C5.5 2.34315 4.15685 1 2.5 1H2C1.72386 1 1.5 0.776142 1.5 0.5Z" fill="#8C30F5"/>
</svg>
