<svg width="24" height="24" viewBox="0 0 24 24" fill="none" xmlns="http://www.w3.org/2000/svg">
<g clip-path="url(#clip0_1828_24502)">
<path d="M22.555 13.6621L20.655 6.82606C20.0981 4.82339 18.8877 3.06434 17.2163 1.82853C15.5449 0.592709 13.5084 -0.0489569 11.4304 0.00552316C9.3525 0.0600033 7.35239 0.807503 5.74805 2.1292C4.1437 3.45091 3.02719 5.27096 2.57598 7.30006L1.10498 13.9151C0.942497 14.646 0.946254 15.4041 1.11597 16.1334C1.2857 16.8627 1.61705 17.5445 2.08556 18.1286C2.55408 18.7127 3.1478 19.1841 3.82289 19.508C4.49798 19.8319 5.2372 20.0001 5.98598 20.0001H7.09998C7.3295 21.1303 7.94271 22.1465 8.83572 22.8764C9.72874 23.6063 10.8466 24.0051 12 24.0051C13.1533 24.0051 14.2712 23.6063 15.1642 22.8764C16.0573 22.1465 16.6705 21.1303 16.9 20.0001H17.738C18.5088 20.0001 19.2692 19.8219 19.9597 19.4795C20.6503 19.137 21.2523 18.6396 21.7188 18.0259C22.1853 17.4123 22.5036 16.6991 22.6488 15.9421C22.794 15.1851 22.7622 14.4048 22.556 13.6621H22.555ZM12 22.0001C11.3817 21.9975 10.7794 21.804 10.2753 21.446C9.77121 21.088 9.39007 20.583 9.18398 20.0001H14.816C14.6099 20.583 14.2288 21.088 13.7247 21.446C13.2206 21.804 12.6182 21.9975 12 22.0001V22.0001ZM20.126 16.8151C19.8473 17.1847 19.4863 17.4843 19.0716 17.69C18.6569 17.8957 18.1999 18.0019 17.737 18.0001H5.98598C5.53677 18 5.0933 17.899 4.68832 17.7046C4.28334 17.5102 3.92719 17.2274 3.64614 16.877C3.3651 16.5265 3.16634 16.1174 3.06454 15.6799C2.96274 15.2424 2.9605 14.7876 3.05798 14.3491L4.52798 7.73306C4.88233 6.13926 5.75929 4.70966 7.01944 3.67151C8.27959 2.63335 9.85061 2.04623 11.4828 2.00347C13.1149 1.96071 14.7145 2.46477 16.0273 3.43553C17.3401 4.40628 18.2907 5.788 18.728 7.36106L20.628 14.1971C20.7535 14.6424 20.7735 15.1109 20.6864 15.5654C20.5992 16.0198 20.4074 16.4477 20.126 16.8151V16.8151Z" fill="#0B0D17"/>
<path d="M23 3.5H20.5V1C20.5 0.336958 20.2366 -0.298927 19.7678 -0.767767C19.2989 -1.23661 18.663 -1.5 18 -1.5C17.337 -1.5 16.7011 -1.23661 16.2322 -0.767767C15.7634 -0.298927 15.5 0.336958 15.5 1V3.5H13C12.337 3.5 11.7011 3.76339 11.2322 4.23223C10.7634 4.70107 10.5 5.33696 10.5 6C10.5 6.66304 10.7634 7.29893 11.2322 7.76777C11.7011 8.23661 12.337 8.5 13 8.5H15.5V11C15.5 11.663 15.7634 12.2989 16.2322 12.7678C16.7011 13.2366 17.337 13.5 18 13.5C18.663 13.5 19.2989 13.2366 19.7678 12.7678C20.2366 12.2989 20.5 11.663 20.5 11V8.5H23C23.663 8.5 24.2989 8.23661 24.7678 7.76777C25.2366 7.29892 25.5 6.66304 25.5 6C25.5 5.33696 25.2366 4.70108 24.7678 4.23223C24.2989 3.76339 23.663 3.5 23 3.5Z" fill="#0B0D17" stroke="white" stroke-width="3"/>
</g>
<defs>
<clipPath id="clip0_1828_24502">
<rect width="24" height="24" fill="white"/>
</clipPath>
</defs>
</svg>
