<svg width="12" height="12" viewBox="0 0 12 12" fill="none" xmlns="http://www.w3.org/2000/svg">
<g clip-path="url(#clip0_2074_2909)">
<path d="M11.2775 6.83097L10.3275 3.41297C10.049 2.41163 9.44386 1.53211 8.60816 0.914202C7.77246 0.296294 6.7542 -0.0245395 5.71522 0.00270055C4.67625 0.0299406 3.6762 0.403691 2.87402 1.06454C2.07185 1.72539 1.51359 2.63542 1.28799 3.64997L0.552491 6.95747C0.471249 7.32293 0.473127 7.70198 0.557987 8.06663C0.642848 8.43127 0.808523 8.7722 1.04278 9.06424C1.27704 9.35629 1.5739 9.59199 1.91145 9.75394C2.24899 9.9159 2.6186 9.99998 2.99299 9.99997H3.54999C3.66475 10.5651 3.97136 11.0732 4.41786 11.4382C4.86437 11.8031 5.42331 12.0025 5.99999 12.0025C6.57667 12.0025 7.13561 11.8031 7.58212 11.4382C8.02863 11.0732 8.33523 10.5651 8.44999 9.99997H8.86899C9.2544 9.99999 9.63459 9.91091 9.97987 9.73969C10.3251 9.56846 10.6262 9.31972 10.8594 9.0129C11.0926 8.70608 11.2518 8.34949 11.3244 7.97099C11.397 7.59248 11.3811 7.20232 11.278 6.83097H11.2775ZM5.99999 11C5.69086 10.9987 5.38968 10.9019 5.13764 10.7229C4.88561 10.5439 4.69503 10.2914 4.59199 9.99997H7.40799C7.30495 10.2914 7.11438 10.5439 6.86234 10.7229C6.61031 10.9019 6.30912 10.9987 5.99999 11ZM10.063 8.40747C9.92366 8.5923 9.74315 8.74209 9.53579 8.84495C9.32844 8.9478 9.09995 9.00088 8.86849 8.99997H2.99299C2.76838 8.99993 2.54665 8.94945 2.34416 8.85226C2.14167 8.75506 1.96359 8.61364 1.82307 8.43842C1.68255 8.2632 1.58317 8.05865 1.53227 7.83989C1.48137 7.62113 1.48025 7.39372 1.52899 7.17447L2.26399 3.86647C2.44117 3.06957 2.87964 2.35477 3.50972 1.83569C4.13979 1.31661 4.9253 1.02305 5.74138 1.00167C6.55745 0.980295 7.35726 1.23233 8.01364 1.7177C8.67003 2.20308 9.14533 2.89394 9.36399 3.68047L10.314 7.09847C10.3768 7.32115 10.3868 7.55541 10.3432 7.78263C10.2996 8.00986 10.2037 8.22379 10.063 8.40747Z" fill="#8C30F5"/>
<path d="M11.5 1.5H10.5V0.5C10.5 0.102174 10.342 -0.279356 10.0607 -0.56066C9.77936 -0.841964 9.39783 -1 9 -1C8.60217 -1 8.22064 -0.841964 7.93934 -0.56066C7.65804 -0.279356 7.5 0.102174 7.5 0.5V1.5H6.5C6.10217 1.5 5.72064 1.65804 5.43934 1.93934C5.15804 2.22064 5 2.60217 5 3C5 3.39783 5.15804 3.77936 5.43934 4.06066C5.72064 4.34196 6.10217 4.5 6.5 4.5H7.5V5.5C7.5 5.89782 7.65804 6.27936 7.93934 6.56066C8.22065 6.84197 8.60218 7 9 7C9.39782 7 9.77935 6.84197 10.0607 6.56066C10.342 6.27936 10.5 5.89782 10.5 5.5V4.5H11.5C11.8978 4.5 12.2794 4.34196 12.5607 4.06066C12.842 3.77935 13 3.39782 13 3C13 2.60218 12.842 2.22065 12.5607 1.93934C12.2794 1.65804 11.8978 1.5 11.5 1.5Z" fill="#8C30F5" stroke="white" stroke-width="2"/>
</g>
<defs>
<clipPath id="clip0_2074_2909">
<rect width="12" height="12" fill="white"/>
</clipPath>
</defs>
</svg>
