<svg width="12" height="12" viewBox="0 0 12 12" fill="none" xmlns="http://www.w3.org/2000/svg">
<g clip-path="url(#clip0_2074_3130)">
<path fill-rule="evenodd" clip-rule="evenodd" d="M0.5 12C0.776142 12 1 11.7761 1 11.5V11.1C1 10.4925 1.49249 10 2.1 10H9.9C10.5075 10 11 10.4925 11 11.1V11.5C11 11.7761 11.2239 12 11.5 12C11.7761 12 12 11.7761 12 11.5V11.1C12 9.9402 11.0598 9 9.9 9H2.1C0.940202 9 0 9.9402 0 11.1V11.5C0 11.7761 0.223858 12 0.5 12Z" fill="#8C30F5"/>
<path fill-rule="evenodd" clip-rule="evenodd" d="M8.89645 5.92855C8.70118 5.73329 8.70118 5.41671 8.89645 5.22144L10.716 3.4019C10.9112 3.20664 10.9112 2.89006 10.716 2.6948L8.89645 0.875258C8.70118 0.679996 8.70118 0.363413 8.89645 0.168151C9.09171 -0.0271112 9.40829 -0.0271109 9.60355 0.168151L11.4231 1.98769C12.0089 2.57348 12.0089 3.52322 11.4231 4.10901L9.60355 5.92855C9.40829 6.12381 9.09171 6.12381 8.89645 5.92855Z" fill="#8C30F5"/>
<path fill-rule="evenodd" clip-rule="evenodd" d="M11 3C11 2.72386 10.7761 2.5 10.5 2.5H8.5C6.29086 2.5 4.5 4.29086 4.5 6.5V7.5C4.5 7.77614 4.72386 8 5 8C5.27614 8 5.5 7.77614 5.5 7.5V6.5C5.5 4.84315 6.84315 3.5 8.5 3.5H10.5C10.7761 3.5 11 3.27614 11 3Z" fill="#8C30F5"/>
<path fill-rule="evenodd" clip-rule="evenodd" d="M2 11.5C2 11.2239 2.22386 11 2.5 11H9.5C9.77614 11 10 11.2239 10 11.5C10 11.7761 9.77614 12 9.5 12H2.5C2.22386 12 2 11.7761 2 11.5Z" fill="#8C30F5"/>
</g>
<defs>
<clipPath id="clip0_2074_3130">
<rect width="12" height="12" fill="white"/>
</clipPath>
</defs>
</svg>
