<svg width="16" height="16" viewBox="0 0 16 16" fill="none" xmlns="http://www.w3.org/2000/svg">
<path fill-rule="evenodd" clip-rule="evenodd" d="M7.99991 6.0262C6.90979 6.0262 6.02608 6.90992 6.02608 8.00003C6.02608 9.09014 6.90979 9.97385 7.99991 9.97385C9.09002 9.97385 9.97373 9.09014 9.97373 8.00003C9.97373 6.90992 9.09002 6.0262 7.99991 6.0262ZM4.69275 8.00003C4.69275 6.17354 6.17341 4.69287 7.99991 4.69287C9.8264 4.69287 11.3071 6.17354 11.3071 8.00003C11.3071 9.82652 9.8264 11.3072 7.99991 11.3072C6.17341 11.3072 4.69275 9.82652 4.69275 8.00003Z" fill="#8C30F5"/>
<path fill-rule="evenodd" clip-rule="evenodd" d="M6.29566 0.965613C7.06717 -0.321873 8.93283 -0.32187 9.70434 0.965614L10.1702 1.74308C10.3182 1.99007 10.6104 2.1111 10.8897 2.04111L11.7689 1.82079C13.2248 1.45594 14.5441 2.77516 14.1792 4.23109L13.9589 5.11028C13.8889 5.38957 14.0099 5.68177 14.2569 5.82977L15.0344 6.29566C16.3219 7.06717 16.3219 8.93283 15.0344 9.70434L14.2569 10.1702C14.0099 10.3182 13.8889 10.6104 13.9589 10.8897L14.1792 11.7689C14.5441 13.2248 13.2248 14.5441 11.7689 14.1792L10.8897 13.9589C10.6104 13.8889 10.3182 14.0099 10.1702 14.2569L9.70434 15.0344C8.93283 16.3219 7.06717 16.3219 6.29566 15.0344L5.82977 14.2569C5.68177 14.0099 5.38957 13.8889 5.11027 13.9589L4.23109 14.1792C2.77516 14.5441 1.45594 13.2248 1.82079 11.7689L2.04111 10.8897C2.1111 10.6104 1.99007 10.3182 1.74308 10.1702L0.965613 9.70434C-0.321873 8.93283 -0.32187 7.06717 0.965614 6.29566L1.74308 5.82977L2.04649 6.3361L1.74309 5.82977C1.99007 5.68177 2.1111 5.38957 2.04111 5.11027L1.82079 4.23109C1.45594 2.77516 2.77516 1.45594 4.23109 1.82079L5.11027 2.04111C5.38957 2.1111 5.68177 1.99007 5.82978 1.74308L6.29566 0.965613ZM8.56063 1.65096C8.30685 1.22746 7.69315 1.22746 7.43937 1.65096L6.97348 2.42843C6.52355 3.17928 5.63525 3.54723 4.78617 3.33445L3.90698 3.11413C3.42806 2.99411 2.99411 3.42806 3.11413 3.90698L3.33445 4.78616C3.54723 5.63525 3.17928 6.52355 2.42844 6.97348L1.65097 7.43937C1.22746 7.69315 1.22746 8.30685 1.65096 8.56063L2.42843 9.02652C3.17928 9.47645 3.54723 10.3648 3.33445 11.2138L3.11413 12.093C2.99411 12.5719 3.42806 13.0059 3.90698 12.8859L4.78616 12.6655C5.63524 12.4528 6.52355 12.8207 6.97348 13.5716L7.43937 14.349C7.69315 14.7725 8.30685 14.7725 8.56063 14.349L9.02652 13.5716C9.47645 12.8207 10.3648 12.4528 11.2138 12.6655L12.093 12.8859C12.5719 13.0059 13.0059 12.5719 12.8859 12.093L12.6655 11.2138C12.4528 10.3648 12.8207 9.47645 13.5716 9.02652L14.349 8.56063C14.7725 8.30685 14.7725 7.69315 14.349 7.43937L13.5716 6.97348C12.8207 6.52355 12.4528 5.63525 12.6655 4.78617L12.8859 3.90698C13.0059 3.42806 12.5719 2.99411 12.093 3.11413L11.2138 3.33445C10.3648 3.54723 9.47645 3.17928 9.02652 2.42844L8.56063 1.65096Z" fill="#8C30F5"/>
</svg>
