<svg width="20" height="20" viewBox="0 0 20 20" fill="none" xmlns="http://www.w3.org/2000/svg">
<g clip-path="url(#clip0_1887_39392)">
<path d="M10 0C8.02218 0 6.08879 0.58649 4.44429 1.6853C2.7998 2.78412 1.51808 4.3459 0.761202 6.17317C0.00432523 8.00043 -0.193708 10.0111 0.192144 11.9509C0.577996 13.8907 1.5304 15.6725 2.92893 17.0711C4.32745 18.4696 6.10928 19.422 8.04909 19.8079C9.9889 20.1937 11.9996 19.9957 13.8268 19.2388C15.6541 18.4819 17.2159 17.2002 18.3147 15.5557C19.4135 13.9112 20 11.9778 20 10C19.9971 7.34872 18.9426 4.80684 17.0679 2.9321C15.1932 1.05736 12.6513 0.00286757 10 0V0ZM10 18.3333C8.35182 18.3333 6.74065 17.8446 5.37024 16.9289C3.99984 16.0132 2.93173 14.7117 2.301 13.189C1.67027 11.6663 1.50524 9.99076 1.82679 8.37425C2.14833 6.75774 2.942 5.27288 4.10744 4.10744C5.27288 2.94201 6.75774 2.14833 8.37424 1.82679C9.99075 1.50525 11.6663 1.67027 13.189 2.301C14.7117 2.93173 16.0132 3.99984 16.9289 5.37025C17.8446 6.74066 18.3333 8.35182 18.3333 10C18.3309 12.2094 17.4522 14.3276 15.8899 15.8899C14.3276 17.4522 12.2094 18.3309 10 18.3333Z" fill="#FF5858"/>
<path d="M10 4.16663C9.77898 4.16663 9.56702 4.25442 9.41074 4.4107C9.25446 4.56698 9.16666 4.77895 9.16666 4.99996V11.6666C9.16666 11.8876 9.25446 12.0996 9.41074 12.2559C9.56702 12.4122 9.77898 12.5 10 12.5C10.221 12.5 10.433 12.4122 10.5893 12.2559C10.7455 12.0996 10.8333 11.8876 10.8333 11.6666V4.99996C10.8333 4.77895 10.7455 4.56698 10.5893 4.4107C10.433 4.25442 10.221 4.16663 10 4.16663Z" fill="#FF5858"/>
<path d="M10.8333 15C10.8333 14.5397 10.4602 14.1666 10 14.1666C9.53976 14.1666 9.16666 14.5397 9.16666 15C9.16666 15.4602 9.53976 15.8333 10 15.8333C10.4602 15.8333 10.8333 15.4602 10.8333 15Z" fill="#FF5858"/>
</g>
<defs>
<clipPath id="clip0_1887_39392">
<rect width="20" height="20" fill="white"/>
</clipPath>
</defs>
</svg>
