<svg width="24" height="24" viewBox="0 0 24 24" fill="none" xmlns="http://www.w3.org/2000/svg">
<g clip-path="url(#clip0_3447_10194)">
<circle cx="12" cy="12" r="12" fill="#FFB930"/>
<path d="M11 6C11 5.73478 11.1054 5.48043 11.2929 5.29289C11.4804 5.10536 11.7348 5 12 5C12.2652 5 12.5196 5.10536 12.7071 5.29289C12.8946 5.48043 13 5.73478 13 6V14C13 14.2652 12.8946 14.5196 12.7071 14.7071C12.5196 14.8946 12.2652 15 12 15C11.7348 15 11.4804 14.8946 11.2929 14.7071C11.1054 14.5196 11 14.2652 11 14V6ZM12 18C12.1978 18 12.3911 18.0586 12.5556 18.1685C12.72 18.2784 12.8482 18.4346 12.9239 18.6173C12.9996 18.8 13.0194 19.0011 12.9808 19.1951C12.9422 19.3891 12.847 19.5673 12.7071 19.7071C12.5673 19.847 12.3891 19.9422 12.1951 19.9808C12.0011 20.0194 11.8 19.9996 11.6173 19.9239C11.4346 19.8482 11.2784 19.72 11.1685 19.5556C11.0586 19.3911 11 19.1978 11 19C11 18.7348 11.1054 18.4804 11.2929 18.2929C11.4804 18.1054 11.7348 18 12 18Z" fill="white"/>
</g>
<defs>
<clipPath id="clip0_3447_10194">
<rect width="24" height="24" rx="12" fill="white"/>
</clipPath>
</defs>
</svg>
