<svg width="12" height="12" viewBox="0 0 12 12" fill="none" xmlns="http://www.w3.org/2000/svg">
<path d="M0 6C0 2.68629 2.68629 0 6 0C9.31371 0 12 2.68629 12 6C12 9.31371 9.31371 12 6 12C2.68629 12 0 9.31371 0 6Z" fill="#00B674"/>
<g clip-path="url(#clip0_1953_5091)">
<path d="M4.48311 9.40309C4.36237 9.40314 4.24281 9.37937 4.13127 9.33314C4.01974 9.28692 3.91841 9.21914 3.83311 9.1337L1.86794 7.16925C1.7664 7.06768 1.70935 6.92992 1.70935 6.78629C1.70935 6.64266 1.7664 6.50491 1.86794 6.40334C1.96952 6.30179 2.10727 6.24474 2.2509 6.24474C2.39453 6.24474 2.53228 6.30179 2.63386 6.40334L4.48311 8.25259L9.37544 3.36025C9.47702 3.25871 9.61477 3.20166 9.7584 3.20166C9.90203 3.20166 10.0398 3.25871 10.1414 3.36025C10.2429 3.46183 10.3 3.59958 10.3 3.74321C10.3 3.88684 10.2429 4.02459 10.1414 4.12617L5.13311 9.1337C5.04781 9.21914 4.94648 9.28692 4.83495 9.33314C4.72341 9.37937 4.60385 9.40314 4.48311 9.40309Z" fill="white"/>
</g>
<defs>
<clipPath id="clip0_1953_5091">
<rect width="8.66667" height="8.66667" fill="white" transform="translate(1.66663 1.6665)"/>
</clipPath>
</defs>
</svg>
