<svg width="20" height="20" viewBox="0 0 20 20" fill="none" xmlns="http://www.w3.org/2000/svg">
<path fill-rule="evenodd" clip-rule="evenodd" d="M0 1.45833C0 0.652918 0.652918 0 1.45833 0H12.2917C13.0971 0 13.75 0.652918 13.75 1.45833V18.5417C13.75 19.3471 13.0971 20 12.2917 20H1.45833C0.652918 20 0 19.3471 0 18.5417V1.45833ZM1.45833 1.25C1.34327 1.25 1.25 1.34327 1.25 1.45833V18.5417C1.25 18.6567 1.34327 18.75 1.45833 18.75H12.2917C12.4067 18.75 12.5 18.6567 12.5 18.5417V1.45833C12.5 1.34327 12.4067 1.25 12.2917 1.25H1.45833Z" fill="#FFB930"/>
<path fill-rule="evenodd" clip-rule="evenodd" d="M2.5 4.375C2.5 3.33947 3.33947 2.5 4.375 2.5H9.375C10.4105 2.5 11.25 3.33947 11.25 4.375C11.25 5.41053 10.4105 6.25 9.375 6.25H4.375C3.33947 6.25 2.5 5.41053 2.5 4.375ZM4.375 3.75C4.02982 3.75 3.75 4.02982 3.75 4.375C3.75 4.72018 4.02982 5 4.375 5H9.375C9.72018 5 10 4.72018 10 4.375C10 4.02982 9.72018 3.75 9.375 3.75H4.375Z" fill="#FFB930"/>
<path fill-rule="evenodd" clip-rule="evenodd" d="M0 8.125C0 7.77982 0.279822 7.5 0.625 7.5H13.125C13.4702 7.5 13.75 7.77982 13.75 8.125C13.75 8.47018 13.4702 8.75 13.125 8.75H0.625C0.279822 8.75 0 8.47018 0 8.125Z" fill="#FFB930"/>
<path fill-rule="evenodd" clip-rule="evenodd" d="M12.5 4.375C12.5 4.02982 12.7798 3.75 13.125 3.75H14.375C15.4105 3.75 16.25 4.58947 16.25 5.625V18.125C16.25 18.4702 16.5298 18.75 16.875 18.75C17.2202 18.75 17.5 18.4702 17.5 18.125V10.6251C17.5 10.625 17.5 10.6251 17.5 10.6251C17.4999 9.68617 17.7776 8.76818 18.2982 7.98681L18.8553 7.15283C19.047 6.8658 19.4351 6.78855 19.7222 6.98029C20.0092 7.17202 20.0864 7.56014 19.8947 7.84717L19.3385 8.67986C19.3384 8.67992 19.3385 8.6798 19.3385 8.67986C18.9548 9.2559 18.7499 9.93278 18.75 10.6249V18.125C18.75 19.1605 17.9105 20 16.875 20C15.8395 20 15 19.1605 15 18.125V5.625C15 5.27982 14.7202 5 14.375 5H13.125C12.7798 5 12.5 4.72018 12.5 4.375Z" fill="#FFB930"/>
<path fill-rule="evenodd" clip-rule="evenodd" d="M17.5 10.625C17.5 10.2798 17.7798 10 18.125 10H19.375C19.7202 10 20 10.2798 20 10.625C20 10.9702 19.7202 11.25 19.375 11.25H18.125C17.7798 11.25 17.5 10.9702 17.5 10.625Z" fill="#FFB930"/>
</svg>
