<svg width="40" height="40" viewBox="0 0 40 40" fill="none" xmlns="http://www.w3.org/2000/svg">
<path fill-rule="evenodd" clip-rule="evenodd" d="M19.9999 40C8.95418 40 -0.00012207 31.0457 -0.00012207 20C-0.00012207 8.9543 8.95418 0 19.9999 0C31.0456 0 39.9999 8.9543 39.9999 20C39.9999 31.0457 31.0456 40 19.9999 40Z" fill="#F4F5F7"/>
<path fill-rule="evenodd" clip-rule="evenodd" d="M10 11.4583C10 10.6529 10.6529 10 11.4583 10H22.2917C23.0971 10 23.75 10.6529 23.75 11.4583V28.5417C23.75 29.3471 23.0971 30 22.2917 30H11.4583C10.6529 30 10 29.3471 10 28.5417V11.4583ZM11.4583 11.25C11.3433 11.25 11.25 11.3433 11.25 11.4583V28.5417C11.25 28.6567 11.3433 28.75 11.4583 28.75H22.2917C22.4067 28.75 22.5 28.6567 22.5 28.5417V11.4583C22.5 11.3433 22.4067 11.25 22.2917 11.25H11.4583Z" fill="#0B0D17"/>
<path fill-rule="evenodd" clip-rule="evenodd" d="M12.5 14.375C12.5 13.3395 13.3395 12.5 14.375 12.5H19.375C20.4105 12.5 21.25 13.3395 21.25 14.375C21.25 15.4105 20.4105 16.25 19.375 16.25H14.375C13.3395 16.25 12.5 15.4105 12.5 14.375ZM14.375 13.75C14.0298 13.75 13.75 14.0298 13.75 14.375C13.75 14.7202 14.0298 15 14.375 15H19.375C19.7202 15 20 14.7202 20 14.375C20 14.0298 19.7202 13.75 19.375 13.75H14.375Z" fill="#0B0D17"/>
<path fill-rule="evenodd" clip-rule="evenodd" d="M10 18.125C10 17.7798 10.2798 17.5 10.625 17.5H23.125C23.4702 17.5 23.75 17.7798 23.75 18.125C23.75 18.4702 23.4702 18.75 23.125 18.75H10.625C10.2798 18.75 10 18.4702 10 18.125Z" fill="#0B0D17"/>
<path fill-rule="evenodd" clip-rule="evenodd" d="M22.5 14.375C22.5 14.0298 22.7798 13.75 23.125 13.75H24.375C25.4105 13.75 26.25 14.5895 26.25 15.625V28.125C26.25 28.4702 26.5298 28.75 26.875 28.75C27.2202 28.75 27.5 28.4702 27.5 28.125V20.6251C27.5 20.625 27.5 20.6251 27.5 20.6251C27.4999 19.6862 27.7776 18.7682 28.2982 17.9868L28.8553 17.1528C29.047 16.8658 29.4351 16.7886 29.7222 16.9803C30.0092 17.172 30.0864 17.5601 29.8947 17.8472L29.3385 18.6799C29.3384 18.6799 29.3385 18.6798 29.3385 18.6799C28.9548 19.2559 28.7499 19.9328 28.75 20.6249V28.125C28.75 29.1605 27.9105 30 26.875 30C25.8395 30 25 29.1605 25 28.125V15.625C25 15.2798 24.7202 15 24.375 15H23.125C22.7798 15 22.5 14.7202 22.5 14.375Z" fill="#0B0D17"/>
<path fill-rule="evenodd" clip-rule="evenodd" d="M27.5 20.625C27.5 20.2798 27.7798 20 28.125 20H29.375C29.7202 20 30 20.2798 30 20.625C30 20.9702 29.7202 21.25 29.375 21.25H28.125C27.7798 21.25 27.5 20.9702 27.5 20.625Z" fill="#0B0D17"/>
</svg>
