<svg width="24" height="24" viewBox="0 0 24 24" fill="none" xmlns="http://www.w3.org/2000/svg">
<g clip-path="url(#clip0_1937_14426)">
<path d="M4.5 17.5H2C1.46957 17.5 0.960859 17.7107 0.585786 18.0858C0.210714 18.4609 0 18.9696 0 19.5L0 22C0 22.5304 0.210714 23.0391 0.585786 23.4142C0.960859 23.7893 1.46957 24 2 24H4.5C5.03043 24 5.53914 23.7893 5.91421 23.4142C6.28929 23.0391 6.5 22.5304 6.5 22V19.5C6.5 18.9696 6.28929 18.4609 5.91421 18.0858C5.53914 17.7107 5.03043 17.5 4.5 17.5ZM4.5 22H2V19.5H4.5V22Z" fill="currentColor"/>
<path d="M22 17.5H19.5C18.9696 17.5 18.4609 17.7107 18.0858 18.0858C17.7107 18.4609 17.5 18.9696 17.5 19.5V22C17.5 22.5304 17.7107 23.0391 18.0858 23.4142C18.4609 23.7893 18.9696 24 19.5 24H22C22.5304 24 23.0391 23.7893 23.4142 23.4142C23.7893 23.0391 24 22.5304 24 22V19.5C24 18.9696 23.7893 18.4609 23.4142 18.0858C23.0391 17.7107 22.5304 17.5 22 17.5ZM22 22H19.5V19.5H22V22Z" fill="currentColor"/>
<path d="M4.5 8.75H2C1.46957 8.75 0.960859 8.96071 0.585786 9.33579C0.210714 9.71086 0 10.2196 0 10.75L0 13.25C0 13.7804 0.210714 14.2891 0.585786 14.6642C0.960859 15.0393 1.46957 15.25 2 15.25H4.5C5.03043 15.25 5.53914 15.0393 5.91421 14.6642C6.28929 14.2891 6.5 13.7804 6.5 13.25V10.75C6.5 10.2196 6.28929 9.71086 5.91421 9.33579C5.53914 8.96071 5.03043 8.75 4.5 8.75ZM4.5 13.25H2V10.75H4.5V13.25Z" fill="currentColor"/>
<path d="M22 8.75H19.5C18.9696 8.75 18.4609 8.96071 18.0858 9.33579C17.7107 9.71086 17.5 10.2196 17.5 10.75V13.25C17.5 13.7804 17.7107 14.2891 18.0858 14.6642C18.4609 15.0393 18.9696 15.25 19.5 15.25H22C22.5304 15.25 23.0391 15.0393 23.4142 14.6642C23.7893 14.2891 24 13.7804 24 13.25V10.75C24 10.2196 23.7893 9.71086 23.4142 9.33579C23.0391 8.96071 22.5304 8.75 22 8.75ZM22 13.25H19.5V10.75H22V13.25Z" fill="currentColor"/>
<path d="M4.5 0H2C1.46957 0 0.960859 0.210714 0.585786 0.585786C0.210714 0.960859 0 1.46957 0 2L0 4.5C0 5.03043 0.210714 5.53914 0.585786 5.91421C0.960859 6.28929 1.46957 6.5 2 6.5H4.5C5.03043 6.5 5.53914 6.28929 5.91421 5.91421C6.28929 5.53914 6.5 5.03043 6.5 4.5V2C6.5 1.46957 6.28929 0.960859 5.91421 0.585786C5.53914 0.210714 5.03043 0 4.5 0V0ZM4.5 4.5H2V2H4.5V4.5Z" fill="currentColor"/>
<path d="M13.25 17.5H10.75C10.2196 17.5 9.71086 17.7107 9.33579 18.0858C8.96071 18.4609 8.75 18.9696 8.75 19.5V22C8.75 22.5304 8.96071 23.0391 9.33579 23.4142C9.71086 23.7893 10.2196 24 10.75 24H13.25C13.7804 24 14.2891 23.7893 14.6642 23.4142C15.0393 23.0391 15.25 22.5304 15.25 22V19.5C15.25 18.9696 15.0393 18.4609 14.6642 18.0858C14.2891 17.7107 13.7804 17.5 13.25 17.5ZM13.25 22H10.75V19.5H13.25V22Z" fill="currentColor"/>
<path d="M13.25 8.75H10.75C10.2196 8.75 9.71086 8.96071 9.33579 9.33579C8.96071 9.71086 8.75 10.2196 8.75 10.75V13.25C8.75 13.7804 8.96071 14.2891 9.33579 14.6642C9.71086 15.0393 10.2196 15.25 10.75 15.25H13.25C13.7804 15.25 14.2891 15.0393 14.6642 14.6642C15.0393 14.2891 15.25 13.7804 15.25 13.25V10.75C15.25 10.2196 15.0393 9.71086 14.6642 9.33579C14.2891 8.96071 13.7804 8.75 13.25 8.75ZM13.25 13.25H10.75V10.75H13.25V13.25Z" fill="currentColor"/>
<path d="M13.25 0H10.75C10.2196 0 9.71086 0.210714 9.33579 0.585786C8.96071 0.960859 8.75 1.46957 8.75 2V4.5C8.75 5.03043 8.96071 5.53914 9.33579 5.91421C9.71086 6.28929 10.2196 6.5 10.75 6.5H13.25C13.7804 6.5 14.2891 6.28929 14.6642 5.91421C15.0393 5.53914 15.25 5.03043 15.25 4.5V2C15.25 1.46957 15.0393 0.960859 14.6642 0.585786C14.2891 0.210714 13.7804 0 13.25 0V0ZM13.25 4.5H10.75V2H13.25V4.5Z" fill="currentColor"/>
<path d="M22 0H19.5C18.9696 0 18.4609 0.210714 18.0858 0.585786C17.7107 0.960859 17.5 1.46957 17.5 2V4.5C17.5 5.03043 17.7107 5.53914 18.0858 5.91421C18.4609 6.28929 18.9696 6.5 19.5 6.5H22C22.5304 6.5 23.0391 6.28929 23.4142 5.91421C23.7893 5.53914 24 5.03043 24 4.5V2C24 1.46957 23.7893 0.960859 23.4142 0.585786C23.0391 0.210714 22.5304 0 22 0V0ZM22 4.5H19.5V2H22V4.5Z" fill="currentColor"/>
</g>
<defs>
<clipPath id="clip0_1937_14426">
<rect width="24" height="24" fill="white"/>
</clipPath>
</defs>
</svg>
