<svg width="17" height="16" viewBox="0 0 17 16" fill="none" xmlns="http://www.w3.org/2000/svg">
<path d="M10.82 10.1915L8.21077 11.8542C7.81552 12.1061 7.70319 12.6247 7.95986 13.0125C8.21342 13.3956 8.73222 13.5079 9.1258 13.2677L10.7469 12.1808L12.1787 11.2189C12.2015 11.204 12.2243 11.1893 12.247 11.175L12.3192 11.1265C12.3605 11.0988 12.4033 11.0749 12.4471 11.0546C12.4825 11.0344 12.5178 11.0149 12.553 10.9961C13.4101 10.5376 14.4838 10.8477 14.951 11.6888C15.3603 12.4256 15.1734 13.3442 14.5072 13.8703C14.6119 13.6237 14.5949 13.3323 14.4354 13.0914C14.1819 12.7082 13.6631 12.596 13.2695 12.8361L11.6484 13.9231L10.2165 14.885C10.203 14.8936 10.1894 14.9021 10.1757 14.9105L10.076 14.9774C9.99217 15.0336 9.90222 15.0745 9.80967 15.1006C8.5631 15.6375 7.06817 15.2255 6.30256 14.0686C5.50632 12.8655 5.78103 11.2829 6.89292 10.4C6.36467 10.1994 5.86394 9.90275 5.41789 9.50864C3.45425 7.77366 3.29372 4.8073 5.05935 2.88308C6.82497 0.95886 9.84814 0.805446 11.8118 2.54042C13.7754 4.2754 13.9359 7.24176 12.1703 9.16598C11.7747 9.59716 11.3159 9.93943 10.82 10.1915ZM10.5671 7.78714C11.5807 6.67456 11.4885 4.9594 10.3613 3.95624C9.23406 2.95307 7.49861 3.04178 6.48506 4.15436C5.4715 5.26695 5.56365 6.9821 6.69088 7.98527C7.8181 8.98843 9.55355 8.89973 10.5671 7.78714Z" fill="white"/>
</svg>
