<svg width="24" height="24" viewBox="0 0 24 24" fill="none" xmlns="http://www.w3.org/2000/svg">
<g clip-path="url(#clip0_1937_11069)">
<path d="M12 6C11.7348 6 11.4804 6.10536 11.2929 6.29289C11.1054 6.48043 11 6.73478 11 7V12C11.0001 12.2652 11.1055 12.5195 11.293 12.707L14.293 15.707C14.4816 15.8892 14.7342 15.99 14.9964 15.9877C15.2586 15.9854 15.5094 15.8802 15.6948 15.6948C15.8802 15.5094 15.9854 15.2586 15.9877 14.9964C15.99 14.7342 15.8892 14.4816 15.707 14.293L13 11.586V7C13 6.73478 12.8946 6.48043 12.7071 6.29289C12.5196 6.10536 12.2652 6 12 6Z" fill="currentColor"/>
<path d="M23.812 10.132C23.4688 7.95784 22.5341 5.91997 21.1104 4.24136C19.6866 2.56275 17.8286 1.30808 15.7396 0.614599C13.6506 -0.0788766 11.4111 -0.184432 9.26613 0.309482C7.12116 0.803396 5.15337 1.87775 3.57803 3.415V1C3.57803 0.734784 3.47268 0.48043 3.28514 0.292893C3.0976 0.105357 2.84325 0 2.57803 0C2.31282 0 2.05846 0.105357 1.87092 0.292893C1.68339 0.48043 1.57803 0.734784 1.57803 1V5C1.57803 5.53043 1.78875 6.03914 2.16382 6.41421C2.53889 6.78929 3.0476 7 3.57803 7H7.57803C7.84325 7 8.0976 6.89464 8.28514 6.70711C8.47267 6.51957 8.57803 6.26522 8.57803 6C8.57803 5.73478 8.47267 5.48043 8.28514 5.29289C8.0976 5.10536 7.84325 5 7.57803 5H4.82703C6.42503 3.37763 8.52935 2.3499 10.7913 2.08709C13.0533 1.82428 15.3372 2.34216 17.2646 3.55494C19.192 4.76771 20.6473 6.60257 21.3892 8.75553C22.1311 10.9085 22.1152 13.2503 21.3442 15.393C20.5731 17.5357 19.0931 19.3507 17.1494 20.5372C15.2057 21.7237 12.915 22.2105 10.6568 21.917C8.39858 21.6236 6.3084 20.5674 4.73256 18.9235C3.15672 17.2796 2.18981 15.1466 1.99203 12.878C1.9661 12.6342 1.84994 12.409 1.66638 12.2465C1.48282 12.0841 1.24513 11.9961 1.00003 12C0.860177 12.0004 0.721933 12.0299 0.59411 12.0866C0.466286 12.1434 0.351685 12.2261 0.257608 12.3296C0.163531 12.4331 0.0920417 12.555 0.0476945 12.6877C0.00334737 12.8203 -0.012885 12.9607 3.16021e-05 13.1C0.158167 14.6934 0.633608 16.2391 1.39835 17.6459C2.16308 19.0528 3.20165 20.2923 4.45285 21.2916C5.70406 22.2908 7.1426 23.0296 8.68373 23.4643C10.2249 23.899 11.8374 24.0208 13.4263 23.8227C15.0153 23.6245 16.5485 23.1104 17.9357 22.3105C19.3228 21.5106 20.5359 20.4412 21.5034 19.1653C22.4709 17.8894 23.1732 16.4327 23.569 14.8811C23.9648 13.3296 24.0461 11.7145 23.808 10.131L23.812 10.132Z" fill="currentColor"/>
</g>
<defs>
<clipPath id="clip0_1937_11069">
<rect width="24" height="24" fill="white"/>
</clipPath>
</defs>
</svg>
