<svg width="12" height="12" viewBox="0 0 12 12" fill="none" xmlns="http://www.w3.org/2000/svg">
<g clip-path="url(#clip0_2260_23840)">
<path d="M11.25 5.25H0.75C0.551088 5.25 0.360322 5.32902 0.21967 5.46967C0.0790176 5.61032 0 5.80109 0 6C0 6.19891 0.0790176 6.38968 0.21967 6.53033C0.360322 6.67098 0.551088 6.75 0.75 6.75H11.25C11.4489 6.75 11.6397 6.67098 11.7803 6.53033C11.921 6.38968 12 6.19891 12 6C12 5.80109 11.921 5.61032 11.7803 5.46967C11.6397 5.32902 11.4489 5.25 11.25 5.25Z" fill="#0B0D17"/>
<path d="M0.75 3.25H11.25C11.4489 3.25 11.6397 3.17098 11.7803 3.03033C11.921 2.88968 12 2.69891 12 2.5C12 2.30109 11.921 2.11032 11.7803 1.96967C11.6397 1.82902 11.4489 1.75 11.25 1.75H0.75C0.551088 1.75 0.360322 1.82902 0.21967 1.96967C0.0790176 2.11032 0 2.30109 0 2.5C0 2.69891 0.0790176 2.88968 0.21967 3.03033C0.360322 3.17098 0.551088 3.25 0.75 3.25Z" fill="#0B0D17"/>
<path d="M11.25 8.75H0.75C0.551088 8.75 0.360322 8.82902 0.21967 8.96967C0.0790176 9.11032 0 9.30109 0 9.5C0 9.69891 0.0790176 9.88968 0.21967 10.0303C0.360322 10.171 0.551088 10.25 0.75 10.25H11.25C11.4489 10.25 11.6397 10.171 11.7803 10.0303C11.921 9.88968 12 9.69891 12 9.5C12 9.30109 11.921 9.11032 11.7803 8.96967C11.6397 8.82902 11.4489 8.75 11.25 8.75Z" fill="#0B0D17"/>
</g>
<defs>
<clipPath id="clip0_2260_23840">
<rect width="12" height="12" fill="white"/>
</clipPath>
</defs>
</svg>
