<svg width="28" height="28" viewBox="0 0 28 28" fill="none" xmlns="http://www.w3.org/2000/svg">
<rect width="28" height="28" rx="14" fill="#0B0D17"/>
<path d="M16.32 16.1915L13.7108 17.8542C13.3155 18.1061 13.2032 18.6247 13.4599 19.0125C13.7134 19.3956 14.2322 19.5079 14.6258 19.2677L16.2469 18.1808L17.6787 17.2189C17.7015 17.204 17.7243 17.1893 17.747 17.175L17.8192 17.1265C17.8605 17.0988 17.9033 17.0749 17.9471 17.0546C17.9825 17.0344 18.0178 17.0149 18.053 16.9961C18.9101 16.5376 19.9838 16.8477 20.451 17.6888C20.8603 18.4256 20.6734 19.3442 20.0072 19.8703C20.1119 19.6237 20.0949 19.3323 19.9354 19.0914C19.6819 18.7082 19.1631 18.596 18.7695 18.8361L17.1484 19.9231L15.7165 20.885C15.703 20.8936 15.6894 20.9021 15.6757 20.9105L15.576 20.9774C15.4922 21.0336 15.4022 21.0745 15.3097 21.1006C14.0631 21.6375 12.5682 21.2255 11.8026 20.0686C11.0063 18.8655 11.281 17.2829 12.3929 16.4C11.8647 16.1994 11.3639 15.9028 10.9179 15.5086C8.95425 13.7737 8.79372 10.8073 10.5593 8.88308C12.325 6.95886 15.3481 6.80545 17.3118 8.54042C19.2754 10.2754 19.4359 13.2418 17.6703 15.166C17.2747 15.5972 16.8159 15.9394 16.32 16.1915ZM16.0671 13.7871C17.0807 12.6746 16.9885 10.9594 15.8613 9.95624C14.7341 8.95307 12.9986 9.04178 11.9851 10.1544C10.9715 11.2669 11.0637 12.9821 12.1909 13.9853C13.3181 14.9884 15.0536 14.8997 16.0671 13.7871Z" fill="white"/>
</svg>
