<svg width="12" height="12" viewBox="0 0 12 12" fill="none" xmlns="http://www.w3.org/2000/svg">
<g clip-path="url(#clip0_2676_57906)">
<path d="M11.4265 0.574C11.0866 0.234598 10.6259 0.0439682 10.1455 0.0439682C9.66515 0.0439682 9.20443 0.234598 8.86451 0.574L0.732508 8.706C0.499633 8.93756 0.314989 9.21301 0.189257 9.5164C0.0635245 9.81978 -0.000798988 10.1451 7.49061e-06 10.4735V11.5C7.49061e-06 11.6326 0.0526859 11.7598 0.146454 11.8536C0.240222 11.9473 0.367399 12 0.500008 12H1.52651C1.85489 12.0009 2.18019 11.9367 2.48359 11.8111C2.78698 11.6854 3.06243 11.5008 3.29401 11.268L11.4265 3.1355C11.7658 2.7956 11.9563 2.33498 11.9563 1.85475C11.9563 1.37452 11.7658 0.913902 11.4265 0.574ZM2.58701 10.561C2.30501 10.8411 1.92399 10.9988 1.52651 11H1.00001V10.4735C0.999502 10.2765 1.03809 10.0813 1.11353 9.89923C1.18897 9.71719 1.29976 9.55193 1.43951 9.413L7.61101 3.2415L8.76101 4.3915L2.58701 10.561ZM10.719 2.4285L9.46601 3.682L8.31601 2.5345L9.56951 1.281C9.64502 1.20565 9.73463 1.14592 9.83322 1.1052C9.93182 1.06449 10.0375 1.04359 10.1441 1.04371C10.2508 1.04383 10.3564 1.06495 10.4549 1.10588C10.5534 1.14681 10.6429 1.20674 10.7183 1.28225C10.7936 1.35776 10.8533 1.44737 10.8941 1.54597C10.9348 1.64456 10.9557 1.75021 10.9555 1.85688C10.9554 1.96355 10.9343 2.06916 10.8934 2.16767C10.8524 2.26617 10.7925 2.35565 10.717 2.431L10.719 2.4285Z" fill="#898989"/>
</g>
<defs>
<clipPath id="clip0_2676_57906">
<rect width="12" height="12" fill="white"/>
</clipPath>
</defs>
</svg>
