<svg width="20" height="21" viewBox="0 0 20 21" fill="none" xmlns="http://www.w3.org/2000/svg">
<g clip-path="url(#clip0_3233_2345)">
<path d="M19.1667 9.66667H10.8333V1.33333C10.8333 1.11232 10.7455 0.900358 10.5893 0.744078C10.433 0.587797 10.221 0.5 10 0.5V0.5C9.77899 0.5 9.56702 0.587797 9.41074 0.744078C9.25446 0.900358 9.16667 1.11232 9.16667 1.33333V9.66667H0.833333C0.61232 9.66667 0.400358 9.75446 0.244078 9.91074C0.0877974 10.067 0 10.279 0 10.5H0C0 10.721 0.0877974 10.933 0.244078 11.0893C0.400358 11.2455 0.61232 11.3333 0.833333 11.3333H9.16667V19.6667C9.16667 19.8877 9.25446 20.0996 9.41074 20.2559C9.56702 20.4122 9.77899 20.5 10 20.5C10.221 20.5 10.433 20.4122 10.5893 20.2559C10.7455 20.0996 10.8333 19.8877 10.8333 19.6667V11.3333H19.1667C19.3877 11.3333 19.5996 11.2455 19.7559 11.0893C19.9122 10.933 20 10.721 20 10.5C20 10.279 19.9122 10.067 19.7559 9.91074C19.5996 9.75446 19.3877 9.66667 19.1667 9.66667Z" fill="#0B0D17"/>
</g>
<defs>
<clipPath id="clip0_3233_2345">
<rect width="20" height="20" fill="white" transform="translate(0 0.5)"/>
</clipPath>
</defs>
</svg>
