<svg width="24" height="24" viewBox="0 0 24 24" fill="none" xmlns="http://www.w3.org/2000/svg">
<g clip-path="url(#clip0_2_3)">
<path d="M0.188028 10.132C0.5313 7.95784 1.46595 5.91997 2.88971 4.24136C4.31347 2.56275 6.17149 1.30808 8.26048 0.614599C10.3495 -0.0788766 12.589 -0.184432 14.7339 0.309482C16.8789 0.803396 18.8467 1.87775 20.422 3.415V1C20.422 0.734784 20.5274 0.48043 20.7149 0.292893C20.9025 0.105357 21.1568 0 21.422 0C21.6872 0 21.9416 0.105357 22.1291 0.292893C22.3167 0.48043 22.422 0.734784 22.422 1V5C22.422 5.53043 22.2113 6.03914 21.8362 6.41421C21.4612 6.78929 20.9525 7 20.422 7H16.422C16.1568 7 15.9025 6.89464 15.7149 6.70711C15.5274 6.51957 15.422 6.26522 15.422 6C15.422 5.73478 15.5274 5.48043 15.7149 5.29289C15.9025 5.10536 16.1568 5 16.422 5H19.173C17.575 3.37763 15.4707 2.3499 13.2087 2.08709C10.9467 1.82428 8.66282 2.34216 6.73542 3.55494C4.80802 4.76771 3.3528 6.60257 2.61087 8.75553C1.86894 10.9085 1.88483 13.2503 2.6559 15.393C3.42698 17.5357 4.90696 19.3507 6.85064 20.5372C8.79432 21.7237 11.085 22.2105 13.3433 21.917C15.6015 21.6236 17.6917 20.5674 19.2675 18.9235C20.8433 17.2796 21.8102 15.1466 22.008 12.878C22.034 12.6342 22.1501 12.409 22.3337 12.2465C22.5172 12.0841 22.7549 11.9961 23 12C23.1399 12.0004 23.2781 12.0299 23.406 12.0866C23.5338 12.1434 23.6484 12.2261 23.7425 12.3296C23.8365 12.4331 23.908 12.555 23.9524 12.6877C23.9967 12.8203 24.0129 12.9607 24 13.1C23.8419 14.6934 23.3665 16.2391 22.6017 17.6459C21.837 19.0528 20.7984 20.2923 19.5472 21.2916C18.296 22.2908 16.8575 23.0296 15.3163 23.4643C13.7752 23.899 12.1627 24.0208 10.5737 23.8227C8.98477 23.6245 7.45155 23.1104 6.06438 22.3105C4.67721 21.5106 3.46416 20.4412 2.49668 19.1653C1.5292 17.8894 0.826874 16.4327 0.431068 14.8811C0.0352629 13.3296 -0.0460143 11.7145 0.192028 10.131L0.188028 10.132Z" fill="#0B0D17"/>
</g>
<defs>
<clipPath id="clip0_2_3">
<rect width="24" height="24" fill="white" transform="matrix(-1 0 0 1 24 0)"/>
</clipPath>
</defs>
</svg>
