<svg width="40" height="40" viewBox="0 0 40 40" fill="none" xmlns="http://www.w3.org/2000/svg">
<path fill-rule="evenodd" clip-rule="evenodd" d="M19.9999 40C8.95418 40 -0.00012207 31.0457 -0.00012207 20C-0.00012207 8.9543 8.95418 0 19.9999 0C31.0456 0 39.9999 8.9543 39.9999 20C39.9999 31.0457 31.0456 40 19.9999 40Z" fill="#F4F5F7"/>
<path fill-rule="evenodd" clip-rule="evenodd" d="M14.375 15.625C14.375 15.2798 14.6548 15 15 15H20C20.3452 15 20.625 15.2798 20.625 15.625C20.625 15.9702 20.3452 16.25 20 16.25H15C14.6548 16.25 14.375 15.9702 14.375 15.625Z" fill="#0B0D17"/>
<path fill-rule="evenodd" clip-rule="evenodd" d="M14.375 19.375C14.375 19.0298 14.6548 18.75 15 18.75H18.125C18.4702 18.75 18.75 19.0298 18.75 19.375C18.75 19.7202 18.4702 20 18.125 20H15C14.6548 20 14.375 19.7202 14.375 19.375Z" fill="#0B0D17"/>
<path fill-rule="evenodd" clip-rule="evenodd" d="M14.375 23.125C14.375 22.7798 14.6548 22.5 15 22.5H18.125C18.4702 22.5 18.75 22.7798 18.75 23.125C18.75 23.4702 18.4702 23.75 18.125 23.75H15C14.6548 23.75 14.375 23.4702 14.375 23.125Z" fill="#0B0D17"/>
<path fill-rule="evenodd" clip-rule="evenodd" d="M23.125 15.625C23.125 15.2798 23.4048 15 23.75 15H25C25.3452 15 25.625 15.2798 25.625 15.625C25.625 15.9702 25.3452 16.25 25 16.25H23.75C23.4048 16.25 23.125 15.9702 23.125 15.625Z" fill="#0B0D17"/>
<path fill-rule="evenodd" clip-rule="evenodd" d="M24.176 20.4832C23.9334 20.1643 23.5504 19.984 23.1501 20C23.1417 20.0003 23.1334 20.0005 23.1251 20.0005C22.7725 20.0005 22.4773 20.1084 22.2844 20.253C22.0917 20.3974 22.0309 20.5493 22.0309 20.6647C22.0309 20.7802 22.0918 20.9323 22.2846 21.0769C22.4776 21.2217 22.7727 21.3297 23.1251 21.3297C23.7219 21.3297 24.2862 21.5105 24.7153 21.8325C25.1446 22.1546 25.4684 22.6473 25.4684 23.2438C25.4684 23.8404 25.1446 24.3331 24.7153 24.6552C24.2892 24.975 23.7298 25.1555 23.1375 25.158C22.3339 25.1864 21.5662 24.8227 21.0792 24.1821C20.8703 23.9073 20.9237 23.5152 21.1985 23.3063C21.4732 23.0974 21.8654 23.1508 22.0743 23.4256C22.3167 23.7444 22.6995 23.9247 23.0997 23.9085C23.1082 23.9082 23.1166 23.908 23.1251 23.908C23.4774 23.908 23.7723 23.8001 23.965 23.6554C24.1576 23.5109 24.2184 23.3589 24.2184 23.2438C24.2184 23.1288 24.1576 22.9768 23.965 22.8323C23.7723 22.6876 23.4774 22.5797 23.1251 22.5797C22.5282 22.5797 21.9638 22.3989 21.5344 22.0768C21.1049 21.7546 20.7809 21.2617 20.7809 20.6647C20.7809 20.0676 21.105 19.5748 21.5347 19.2528C21.9611 18.9332 22.5206 18.753 23.1127 18.7505C23.9161 18.7225 24.6836 19.086 25.1707 19.7262C25.3798 20.0009 25.3266 20.393 25.0519 20.602C24.7772 20.8111 24.3851 20.7579 24.176 20.4832Z" fill="#0B0D17"/>
<path fill-rule="evenodd" clip-rule="evenodd" d="M23.125 23.9072C23.4702 23.9072 23.75 24.187 23.75 24.5322V25.3906C23.75 25.7357 23.4702 26.0156 23.125 26.0156C22.7798 26.0156 22.5 25.7357 22.5 25.3906V24.5322C22.5 24.187 22.7798 23.9072 23.125 23.9072Z" fill="#0B0D17"/>
<path fill-rule="evenodd" clip-rule="evenodd" d="M23.125 17.8916C23.4702 17.8916 23.75 18.1714 23.75 18.5166V19.3749C23.75 19.7201 23.4702 19.9999 23.125 19.9999C22.7798 19.9999 22.5 19.7201 22.5 19.3749V18.5166C22.5 18.1714 22.7798 17.8916 23.125 17.8916Z" fill="#0B0D17"/>
<path fill-rule="evenodd" clip-rule="evenodd" d="M12.3364 10.0218C12.6088 9.94799 12.8968 10.0658 13.0394 10.3093C13.3171 10.7838 13.8252 11.076 14.3749 11.0776C14.9248 11.0759 15.4328 10.7837 15.7107 10.3092C15.8228 10.1177 16.0281 10 16.2501 10.0001C16.472 10.0001 16.6773 10.1178 16.7894 10.3093C17.0671 10.7838 17.5752 11.076 18.1249 11.0776C18.6748 11.0759 19.1828 10.7837 19.4607 10.3092C19.5728 10.1177 19.7781 10 20.0001 10.0001C20.222 10.0001 20.4273 10.1178 20.5394 10.3093C20.8171 10.7838 21.3252 11.076 21.8749 11.0776C22.4247 11.0759 22.9328 10.7837 23.2107 10.3092C23.3228 10.1177 23.5281 10 23.7501 10.0001C23.972 10.0001 24.1773 10.1178 24.2894 10.3093C24.5671 10.7838 25.0752 11.076 25.6249 11.0776C26.1747 11.0759 26.6828 10.7837 26.9607 10.3092C27.1033 10.0657 27.3913 9.94798 27.6636 10.0219C27.9359 10.0957 28.125 10.3429 28.125 10.6251V29.3751C28.125 29.6574 27.9357 29.9047 27.6631 29.9784C27.3906 30.0521 27.1025 29.9339 26.9602 29.69C26.6831 29.2152 26.1747 28.9232 25.625 28.9232C25.0753 28.9232 24.5669 29.2152 24.2898 29.69C24.1159 29.9882 23.7332 30.0888 23.435 29.9149C23.1369 29.7409 23.0362 29.3582 23.2102 29.0601C23.7113 28.2013 24.6307 27.6732 25.625 27.6732C26.0664 27.6732 26.4931 27.7773 26.875 27.9682V12.0311C26.4935 12.2221 26.0674 12.3266 25.6264 12.3276H25.6238C24.9213 12.3262 24.2565 12.0619 23.7499 11.6041C23.2434 12.0618 22.5787 12.326 21.8764 12.3276H21.8738C21.1713 12.3262 20.5065 12.0619 19.9999 11.6041C19.4934 12.0618 18.8287 12.326 18.1264 12.3276H18.1238C17.4213 12.3262 16.7565 12.0619 16.2499 11.6041C15.7434 12.0618 15.0787 12.326 14.3764 12.3276H14.3738C13.9327 12.3267 13.5065 12.2222 13.125 12.0312V27.9682C13.5069 27.7773 13.9336 27.6732 14.375 27.6732C15.0778 27.6732 15.7433 27.9371 16.25 28.3951C16.7567 27.9371 17.4222 27.6732 18.125 27.6732C19.1193 27.6732 20.0387 28.2013 20.5398 29.0601C20.7138 29.3582 20.6131 29.7409 20.315 29.9149C20.0168 30.0888 19.6341 29.9882 19.4602 29.69C19.1831 29.2152 18.6747 28.9232 18.125 28.9232C17.5753 28.9232 17.0669 29.2152 16.7898 29.69C16.6778 29.882 16.4723 30.0001 16.25 30.0001C16.0277 30.0001 15.8222 29.882 15.7102 29.69C15.4331 29.2152 14.9247 28.9232 14.375 28.9232C13.8253 28.9232 13.3169 29.2152 13.0398 29.69C12.8975 29.9339 12.6094 30.0521 12.3369 29.9784C12.0643 29.9047 11.875 29.6574 11.875 29.3751V10.6251C11.875 10.3429 12.0641 10.0957 12.3364 10.0218Z" fill="#0B0D17"/>
<path fill-rule="evenodd" clip-rule="evenodd" d="M21.875 28.9229C21.3252 28.9229 20.8169 29.2148 20.5398 29.6896C20.3658 29.9878 19.9831 30.0884 19.685 29.9145C19.3869 29.7405 19.2862 29.3578 19.4602 29.0597C19.9612 28.2009 20.8807 27.6729 21.875 27.6729C22.8693 27.6729 23.7887 28.2009 24.2898 29.0597C24.4638 29.3578 24.3631 29.7405 24.065 29.9145C23.7668 30.0884 23.3841 29.9878 23.2102 29.6896C22.9331 29.2148 22.4247 28.9229 21.875 28.9229Z" fill="#0B0D17"/>
</svg>
