<svg width="40" height="40" viewBox="0 0 40 40" fill="none" xmlns="http://www.w3.org/2000/svg">
<path d="M25.7599 17.1553C26.3276 16.7296 26.8385 16.2187 27.2358 15.6227C26.7249 15.8497 26.1289 16.02 25.5329 16.0768C26.1573 15.7078 26.6114 15.1402 26.8385 14.4306C26.2708 14.7712 25.618 15.0266 24.9652 15.1686C24.3976 14.5725 23.6313 14.2319 22.7798 14.2319C21.1336 14.2319 19.7996 15.5659 19.7996 17.2121C19.7996 17.4391 19.828 17.6662 19.8848 17.8933C17.4155 17.7514 15.2017 16.5593 13.7258 14.7712C13.4704 15.1969 13.3285 15.7078 13.3285 16.2755C13.3285 17.2972 13.8393 18.2055 14.6624 18.7447C14.1799 18.7164 13.6974 18.6028 13.3001 18.3758V18.4041C13.3001 19.8516 14.3218 21.0437 15.6842 21.3275C15.4571 21.3843 15.1733 21.4411 14.9179 21.4411C14.7192 21.4411 14.5489 21.4127 14.3502 21.3843C14.7192 22.5764 15.8261 23.4278 17.1317 23.4562C16.1099 24.2509 14.8327 24.7334 13.442 24.7334C13.1865 24.7334 12.9595 24.705 12.7324 24.6767C14.038 25.5281 15.599 26.0106 17.302 26.0106C22.7798 26.0106 25.7599 21.4978 25.7599 17.5527C25.7599 17.4108 25.7599 17.2972 25.7599 17.1553Z" fill="#8C30F5"/>
<path d="M20 39C9.50659 39 1 30.4934 1 20H-1C-1 31.598 8.40202 41 20 41V39ZM39 20C39 30.4934 30.4934 39 20 39V41C31.598 41 41 31.598 41 20H39ZM20 1C30.4934 1 39 9.50659 39 20H41C41 8.40202 31.598 -1 20 -1V1ZM20 -1C8.40202 -1 -1 8.40202 -1 20H1C1 9.50659 9.50659 1 20 1V-1Z" fill="#8C30F5"/>
</svg>
