<svg width="20" height="20" viewBox="0 0 20 20" fill="none" xmlns="http://www.w3.org/2000/svg">
<g clip-path="url(#clip0_2175_327)">
<path d="M10 0C8.02219 0 6.08879 0.58649 4.4443 1.6853C2.79981 2.78412 1.51809 4.3459 0.761209 6.17317C0.00433286 8.00043 -0.193701 10.0111 0.192152 11.9509C0.578004 13.8907 1.53041 15.6725 2.92894 17.0711C4.32746 18.4696 6.10929 19.422 8.0491 19.8079C9.98891 20.1937 11.9996 19.9957 13.8268 19.2388C15.6541 18.4819 17.2159 17.2002 18.3147 15.5557C19.4135 13.9112 20 11.9778 20 10C19.9971 7.34872 18.9426 4.80684 17.0679 2.9321C15.1932 1.05736 12.6513 0.00286757 10 0V0ZM10 18.3333C8.35183 18.3333 6.74066 17.8446 5.37025 16.9289C3.99984 16.0132 2.93174 14.7117 2.30101 13.189C1.67028 11.6663 1.50525 9.99076 1.82679 8.37425C2.14834 6.75774 2.94201 5.27288 4.10745 4.10744C5.27289 2.94201 6.75774 2.14833 8.37425 1.82679C9.99076 1.50525 11.6663 1.67027 13.189 2.301C14.7118 2.93173 16.0132 3.99984 16.9289 5.37025C17.8446 6.74066 18.3333 8.35182 18.3333 10C18.3309 12.2094 17.4522 14.3276 15.8899 15.8899C14.3276 17.4522 12.2094 18.3309 10 18.3333Z" fill="#00B674"/>
<path d="M8.26687 12.853L5.59029 10.1764C5.43402 10.0202 5.22209 9.9324 5.00112 9.9324C4.78015 9.9324 4.56823 10.0202 4.41196 10.1764C4.25573 10.3327 4.16797 10.5446 4.16797 10.7656C4.16797 10.9865 4.25573 11.1985 4.41196 11.3547L7.08853 14.0313C7.24331 14.1861 7.42707 14.309 7.62932 14.3928C7.83158 14.4766 8.04836 14.5197 8.26729 14.5197C8.48621 14.5197 8.70299 14.4766 8.90525 14.3928C9.1075 14.309 9.29126 14.1861 9.44604 14.0313L15.3883 8.08907C15.5445 7.9328 15.6323 7.72087 15.6323 7.4999C15.6323 7.27893 15.5445 7.06701 15.3883 6.91074C15.232 6.75451 15.0201 6.66675 14.7991 6.66675C14.5781 6.66675 14.3662 6.75451 14.2099 6.91074L8.26687 12.853Z" fill="#00B674"/>
</g>
<defs>
<clipPath id="clip0_2175_327">
<rect width="20" height="20" fill="white"/>
</clipPath>
</defs>
</svg>
