<svg width="24" height="24" viewBox="0 0 24 24" fill="none" xmlns="http://www.w3.org/2000/svg">
<g clip-path="url(#clip0_3441_4008)">
<path fill-rule="evenodd" clip-rule="evenodd" d="M10 2C10 0.89543 10.8954 0 12 0C12.3514 0 12.6998 0.0151607 13.0444 0.0449393L12.7001 4.03009C12.4698 4.01019 12.2363 4 12 4C10.8954 4 10 3.10457 10 2ZM16.5876 5.44504C16.2078 5.17862 15.8042 4.94462 15.3808 4.74683L17.0737 1.12272C17.7101 1.42 18.3157 1.77125 18.8847 2.17041L16.5876 5.44504ZM19.2532 8.61921C19.0554 8.19579 18.8214 7.79218 18.555 7.41239L21.8296 5.11526C22.2288 5.68428 22.58 6.28992 22.8773 6.92635L19.2532 8.61921ZM20 12C20 11.7637 19.9898 11.5302 19.9699 11.2999L23.9551 10.9556C23.9848 11.3002 24 11.6486 24 12C24 12.3514 23.9848 12.6998 23.9551 13.0444L19.9699 12.7001C19.9898 12.4698 20 12.2363 20 12ZM18.555 16.5876C18.8214 16.2078 19.0554 15.8042 19.2532 15.3808L22.8773 17.0737C22.58 17.7101 22.2288 18.3157 21.8296 18.8847L18.555 16.5876ZM15.3808 19.2532C15.8042 19.0554 16.2078 18.8214 16.5876 18.555L18.8847 21.8296C18.3157 22.2288 17.7101 22.58 17.0737 22.8773L15.3808 19.2532ZM12 20C12.2363 20 12.4698 19.9898 12.7001 19.9699L13.0444 23.9551C12.6998 23.9848 12.3514 24 12 24C10.8954 24 10 23.1046 10 22C10 20.8954 10.8954 20 12 20Z" fill="#0B0D17"/>
<path fill-rule="evenodd" clip-rule="evenodd" d="M12 12C12 11.4477 11.5523 11 11 11H1C0.447715 11 0 11.4477 0 12C0 12.5523 0.447715 13 1 13H11C11.5523 13 12 12.5523 12 12Z" fill="#0B0D17"/>
<path fill-rule="evenodd" clip-rule="evenodd" d="M6.62897 7.62895C6.23845 8.01948 6.23845 8.65264 6.62897 9.04317L9.58579 12L6.62897 14.9568C6.23845 15.3473 6.23845 15.9805 6.62897 16.371C7.0195 16.7615 7.65266 16.7615 8.04319 16.371L11.7071 12.7071C12.0976 12.3166 12.0976 11.6834 11.7071 11.2929L8.04319 7.62895C7.65266 7.23843 7.0195 7.23843 6.62897 7.62895Z" fill="#0B0D17"/>
</g>
<defs>
<clipPath id="clip0_3441_4008">
<rect width="24" height="24" fill="white"/>
</clipPath>
</defs>
</svg>
