<svg width="40" height="40" viewBox="0 0 40 40" fill="none" xmlns="http://www.w3.org/2000/svg">
<path fill-rule="evenodd" clip-rule="evenodd" d="M19.9999 40C8.95418 40 -0.00012207 31.0457 -0.00012207 20C-0.00012207 8.95431 8.95418 0 19.9999 0C31.0456 0 39.9999 8.95431 39.9999 20C39.9999 31.0457 31.0456 40 19.9999 40Z" fill="#F4F5F7"/>
<g clip-path="url(#clip0_2090_9204)">
<path fill-rule="evenodd" clip-rule="evenodd" d="M10.8334 29.792C11.1786 29.792 11.4584 29.5122 11.4584 29.167V28.5003C11.4584 27.3727 12.3725 26.4587 13.5 26.4587H26.5C27.6276 26.4587 28.5417 27.3727 28.5417 28.5003V29.167C28.5417 29.5122 28.8215 29.792 29.1667 29.792C29.5119 29.792 29.7917 29.5122 29.7917 29.167V28.5003C29.7917 26.6824 28.318 25.2087 26.5 25.2087H13.5C11.6821 25.2087 10.2084 26.6824 10.2084 28.5003V29.167C10.2084 29.5122 10.4882 29.792 10.8334 29.792Z" fill="#0B0D17"/>
<path fill-rule="evenodd" clip-rule="evenodd" d="M24.9747 19.7338C24.7306 19.4898 24.7306 19.094 24.9747 18.85L28.0073 15.8174C28.414 15.4106 28.414 14.751 28.0073 14.3443L24.9747 11.3117C24.7306 11.0676 24.7306 10.6719 24.9747 10.4278C25.2188 10.1837 25.6145 10.1837 25.8586 10.4278L28.8911 13.4604C29.7861 14.3553 29.7861 15.8063 28.8911 16.7013L25.8586 19.7338C25.6145 19.9779 25.2188 19.9779 24.9747 19.7338Z" fill="#0B0D17"/>
<path fill-rule="evenodd" clip-rule="evenodd" d="M28.9584 15C28.9584 14.6548 28.6786 14.375 28.3334 14.375H24.1667C20.5999 14.375 17.7084 17.2665 17.7084 20.8333V22.5C17.7084 22.8452 17.9882 23.125 18.3334 23.125C18.6786 23.125 18.9584 22.8452 18.9584 22.5V20.8333C18.9584 17.9569 21.2902 15.625 24.1667 15.625H28.3334C28.6786 15.625 28.9584 15.3452 28.9584 15Z" fill="#0B0D17"/>
<path fill-rule="evenodd" clip-rule="evenodd" d="M13.5416 29.167C13.5416 28.8218 13.8214 28.542 14.1666 28.542H25.8333C26.1785 28.542 26.4583 28.8218 26.4583 29.167C26.4583 29.5122 26.1785 29.792 25.8333 29.792H14.1666C13.8214 29.792 13.5416 29.5122 13.5416 29.167Z" fill="#0B0D17"/>
</g>
<defs>
<clipPath id="clip0_2090_9204">
<rect width="20" height="20" fill="white" transform="translate(10 10)"/>
</clipPath>
</defs>
</svg>
