<svg width="24" height="24" viewBox="0 0 24 24" fill="none" xmlns="http://www.w3.org/2000/svg">
<path fill-rule="evenodd" clip-rule="evenodd" d="M13.7326 13.7065C13.6151 16.5409 15.8115 18.9369 18.6455 19.0656L18.5547 21.0636C14.6276 20.8851 11.5823 17.5707 11.7334 13.6451L11.7334 10.3508C11.5823 6.42519 14.6276 3.11078 18.5547 2.93231L18.6455 4.93025C15.8115 5.05904 13.6151 7.45497 13.7326 10.2894C13.7331 10.3032 13.7334 10.317 13.7334 10.3308L13.7334 13.6651C13.7334 13.6789 13.7331 13.6927 13.7326 13.7065Z" fill="currentColor"/>
<path fill-rule="evenodd" clip-rule="evenodd" d="M5.8667 11.998C5.8667 11.4457 6.31441 10.998 6.8667 10.998L18.6 10.998C19.1523 10.998 19.6 11.4457 19.6 11.998C19.6 12.5503 19.1523 12.998 18.6 12.998L6.8667 12.998C6.31441 12.998 5.8667 12.5503 5.8667 11.998Z" fill="currentColor"/>
<path fill-rule="evenodd" clip-rule="evenodd" d="M3.93333 15.9314C1.76101 15.9314 -7.69763e-08 14.1704 -1.71931e-07 11.998C-2.66887e-07 9.82571 1.76101 8.0647 3.93333 8.0647C6.10565 8.0647 7.86667 9.82571 7.86667 11.998C7.86667 14.1704 6.10565 15.9314 3.93333 15.9314ZM2 11.998C2 13.0658 2.86558 13.9314 3.93333 13.9314C5.00108 13.9314 5.86667 13.0658 5.86667 11.998C5.86667 10.9303 5.00108 10.0647 3.93333 10.0647C2.86558 10.0647 2 10.9303 2 11.998Z" fill="currentColor"/>
<path fill-rule="evenodd" clip-rule="evenodd" d="M20.8001 23.2647C19.0328 23.2647 17.6001 21.832 17.6001 20.0647C17.6001 18.2974 19.0328 16.8647 20.8001 16.8647C22.5674 16.8647 24.0001 18.2974 24.0001 20.0647C24.0001 21.832 22.5674 23.2647 20.8001 23.2647ZM19.6001 20.0647C19.6001 20.7275 20.1374 21.2647 20.8001 21.2647C21.4628 21.2647 22.0001 20.7275 22.0001 20.0647C22.0001 19.402 21.4628 18.8647 20.8001 18.8647C20.1374 18.8647 19.6001 19.402 19.6001 20.0647Z" fill="currentColor"/>
<path fill-rule="evenodd" clip-rule="evenodd" d="M20.8001 15.1979C19.0328 15.1979 17.6001 13.7652 17.6001 11.9979C17.6001 10.2306 19.0328 8.79792 20.8001 8.79792C22.5674 8.79792 24.0001 10.2306 24.0001 11.9979C24.0001 13.7652 22.5674 15.1979 20.8001 15.1979ZM19.6001 11.9979C19.6001 12.6607 20.1374 13.1979 20.8001 13.1979C21.4628 13.1979 22.0001 12.6607 22.0001 11.9979C22.0001 11.3352 21.4628 10.7979 20.8001 10.7979C20.1374 10.7979 19.6001 11.3352 19.6001 11.9979Z" fill="currentColor"/>
<path fill-rule="evenodd" clip-rule="evenodd" d="M20.8001 7.13129C19.0328 7.13129 17.6001 5.69861 17.6001 3.93129C17.6001 2.16398 19.0328 0.731294 20.8001 0.731294C22.5674 0.731294 24.0001 2.16398 24.0001 3.93129C24.0001 5.69861 22.5674 7.13129 20.8001 7.13129ZM19.6001 3.93129C19.6001 4.59404 20.1374 5.13129 20.8001 5.13129C21.4628 5.13129 22.0001 4.59404 22.0001 3.93129C22.0001 3.26855 21.4628 2.73129 20.8001 2.73129C20.1374 2.73129 19.6001 3.26855 19.6001 3.93129Z" fill="currentColor"/>
</svg>
