<svg width="20" height="20" viewBox="0 0 20 20" fill="none" xmlns="http://www.w3.org/2000/svg">
<path fill-rule="evenodd" clip-rule="evenodd" d="M2.5 16.875C2.84518 16.875 3.125 17.1548 3.125 17.5C3.125 18.1904 3.68464 18.75 4.375 18.75H17.5C17.8452 18.75 18.125 19.0298 18.125 19.375C18.125 19.7202 17.8452 20 17.5 20H4.375C2.99429 20 1.875 18.8807 1.875 17.5C1.875 17.1548 2.15482 16.875 2.5 16.875Z" fill="#898989"/>
<path fill-rule="evenodd" clip-rule="evenodd" d="M1.875 3.125C1.875 1.39911 3.27411 0 5 0H16.875C17.5654 0 18.125 0.559644 18.125 1.25V15C18.125 15.6904 17.5654 16.25 16.875 16.25H4.375C3.68464 16.25 3.125 16.8096 3.125 17.5C3.125 17.8452 2.84518 18.125 2.5 18.125C2.15482 18.125 1.875 17.8452 1.875 17.5V3.125ZM3.125 15.3345C3.49272 15.1217 3.91964 15 4.375 15H16.875V1.25H5C3.96447 1.25 3.125 2.08947 3.125 3.125V15.3345Z" fill="#898989"/>
<path fill-rule="evenodd" clip-rule="evenodd" d="M16.25 15C16.5952 15 16.875 15.2798 16.875 15.625V19.375C16.875 19.7202 16.5952 20 16.25 20C15.9048 20 15.625 19.7202 15.625 19.375V15.625C15.625 15.2798 15.9048 15 16.25 15Z" fill="#898989"/>
<path fill-rule="evenodd" clip-rule="evenodd" d="M6.93751 12.5H13.0625C12.7729 11.0736 11.5118 10 10 10C8.48815 10 7.22706 11.0736 6.93751 12.5ZM5.625 13.125C5.625 10.7088 7.58375 8.75 10 8.75C12.4162 8.75 14.375 10.7088 14.375 13.125C14.375 13.4702 14.0952 13.75 13.75 13.75H6.25C5.90482 13.75 5.625 13.4702 5.625 13.125Z" fill="#898989"/>
<path fill-rule="evenodd" clip-rule="evenodd" d="M6.875 6.875C6.875 5.14911 8.27411 3.75 10 3.75C11.7259 3.75 13.125 5.14911 13.125 6.875C13.125 8.60089 11.7259 10 10 10C8.27411 10 6.875 8.60089 6.875 6.875ZM10 5C8.96447 5 8.125 5.83947 8.125 6.875C8.125 7.91053 8.96447 8.75 10 8.75C11.0355 8.75 11.875 7.91053 11.875 6.875C11.875 5.83947 11.0355 5 10 5Z" fill="#898989"/>
</svg>
