<svg width="16" height="16" viewBox="0 0 16 16" fill="none" xmlns="http://www.w3.org/2000/svg">
<g clip-path="url(#clip0_3447_10145)">
<path d="M1.0068 4.05265C1.13812 4.05248 1.26818 4.07831 1.38947 4.12865C1.51076 4.179 1.62087 4.25286 1.71347 4.34598L6.8288 9.46065C6.98357 9.61546 7.16732 9.73827 7.36956 9.82205C7.5718 9.90584 7.78856 9.94896 8.00747 9.94896C8.22637 9.94896 8.44314 9.90584 8.64538 9.82205C8.84761 9.73827 9.03137 9.61546 9.18614 9.46065L14.2935 4.35265C14.3857 4.25714 14.4961 4.18096 14.6181 4.12855C14.7401 4.07614 14.8713 4.04855 15.0041 4.0474C15.1368 4.04625 15.2685 4.07155 15.3914 4.12183C15.5143 4.17211 15.626 4.24636 15.7199 4.34026C15.8138 4.43415 15.888 4.5458 15.9383 4.6687C15.9886 4.79159 16.0139 4.92327 16.0127 5.05605C16.0116 5.18883 15.984 5.32005 15.9316 5.44206C15.8792 5.56406 15.803 5.6744 15.7075 5.76665L10.6001 10.8747C9.91207 11.5614 8.97963 11.9472 8.00747 11.9472C7.03531 11.9472 6.10286 11.5614 5.4148 10.8747L0.299468 5.75998C0.159524 5.62013 0.0642104 5.44191 0.0255876 5.24787C-0.0130351 5.05383 0.00676898 4.85269 0.082494 4.66991C0.158219 4.48712 0.286461 4.33091 0.450994 4.22104C0.615526 4.11116 0.808954 4.05256 1.0068 4.05265Z" fill="#979797"/>
</g>
<defs>
<clipPath id="clip0_3447_10145">
<rect width="16" height="16" fill="white"/>
</clipPath>
</defs>
</svg>
