<svg width="12" height="12" viewBox="0 0 12 12" fill="none" xmlns="http://www.w3.org/2000/svg">
<g clip-path="url(#clip0_2074_1885)">
<path d="M9.56101 9.19694L11.5205 7.23744C11.8387 6.90401 12.0162 6.46083 12.0162 5.99994C12.0162 5.53905 11.8387 5.09587 11.5205 4.76244L9.56101 2.80294C9.42038 2.66225 9.22962 2.58318 9.03069 2.58313C8.83176 2.58308 8.64096 2.66206 8.50026 2.80269C8.35957 2.94332 8.2805 3.13409 8.28045 3.33302C8.2804 3.53195 8.35938 3.72275 8.50001 3.86344L9.89001 5.25394L0.765015 5.26544C0.566102 5.26544 0.375337 5.34446 0.234685 5.48511C0.0940323 5.62577 0.0150146 5.81653 0.0150146 6.01544C0.0150146 6.21436 0.0940323 6.40512 0.234685 6.54577C0.375337 6.68643 0.566102 6.76544 0.765015 6.76544L9.88051 6.75394L8.50001 8.13644C8.3634 8.2779 8.2878 8.46735 8.28951 8.664C8.29122 8.86064 8.37009 9.04875 8.50915 9.18781C8.64821 9.32686 8.83632 9.40574 9.03296 9.40745C9.22961 9.40916 9.41906 9.33356 9.56051 9.19694H9.56101Z" fill="#8C30F5"/>
</g>
<defs>
<clipPath id="clip0_2074_1885">
<rect width="12" height="12" fill="white"/>
</clipPath>
</defs>
</svg>
