<svg width="24" height="24" viewBox="0 0 24 24" fill="none" xmlns="http://www.w3.org/2000/svg">
<g clip-path="url(#clip0_1937_10682)">
<path d="M22.555 13.6617L20.655 6.82569C20.0981 4.82302 18.8877 3.06398 17.2163 1.82816C15.5449 0.592343 13.5084 -0.0493232 11.4304 0.00515695C9.3525 0.0596371 7.35239 0.807137 5.74805 2.12884C4.1437 3.45054 3.02719 5.27059 2.57598 7.29969L1.10498 13.9147C0.942497 14.6456 0.946254 15.4037 1.11597 16.133C1.2857 16.8623 1.61705 17.5442 2.08556 18.1282C2.55408 18.7123 3.1478 19.1837 3.82289 19.5076C4.49798 19.8316 5.23721 19.9997 5.98598 19.9997H7.09998C7.3295 21.13 7.94271 22.1462 8.83572 22.8761C9.72874 23.606 10.8466 24.0047 12 24.0047C13.1533 24.0047 14.2712 23.606 15.1642 22.8761C16.0573 22.1462 16.6705 21.13 16.9 19.9997H17.738C18.5088 19.9997 19.2692 19.8216 19.9597 19.4791C20.6503 19.1367 21.2523 18.6392 21.7188 18.0256C22.1853 17.4119 22.5036 16.6987 22.6488 15.9417C22.794 15.1847 22.7622 14.4044 22.556 13.6617H22.555ZM12 21.9997C11.3817 21.9971 10.7794 21.8036 10.2753 21.4456C9.77121 21.0876 9.39007 20.5826 9.18398 19.9997H14.816C14.6099 20.5826 14.2288 21.0876 13.7247 21.4456C13.2206 21.8036 12.6182 21.9971 12 21.9997ZM20.126 16.8147C19.8473 17.1844 19.4863 17.4839 19.0716 17.6897C18.6569 17.8954 18.1999 18.0015 17.737 17.9997H5.98598C5.53677 17.9996 5.0933 17.8987 4.68832 17.7043C4.28334 17.5099 3.92719 17.227 3.64614 16.8766C3.3651 16.5261 3.16634 16.1171 3.06454 15.6795C2.96274 15.242 2.9605 14.7872 3.05798 14.3487L4.52798 7.73269C4.88233 6.1389 5.75929 4.70929 7.01944 3.67114C8.27959 2.63298 9.85061 2.04586 11.4828 2.0031C13.1149 1.96035 14.7145 2.46441 16.0273 3.43516C17.3401 4.40591 18.2907 5.78764 18.728 7.36069L20.628 14.1967C20.7535 14.6421 20.7735 15.1106 20.6864 15.565C20.5992 16.0195 20.4074 16.4473 20.126 16.8147Z" fill="currentColor"/>
</g>
<defs>
<clipPath id="clip0_1937_10682">
<rect width="24" height="24" fill="white"/>
</clipPath>
</defs>
</svg>
