<svg width="16" height="16" viewBox="0 0 16 16" fill="none" xmlns="http://www.w3.org/2000/svg">
<path d="M9.57443 10.7509C11.9619 10.7509 13.8972 8.81554 13.8972 6.42807C13.8972 4.04062 11.9619 2.10526 9.57443 2.10526C7.18701 2.10526 5.25162 4.04062 5.25162 6.42807C5.25162 8.81554 7.18701 10.7509 9.57443 10.7509ZM9.57443 12.3228C6.31896 12.3228 3.67969 9.68353 3.67969 6.42807C3.67969 3.1726 6.31896 0.533325 9.57443 0.533325C12.8299 0.533325 15.4692 3.1726 15.4692 6.42807C15.4692 9.68353 12.8299 12.3228 9.57443 12.3228Z" fill="#35D07F"/>
<path d="M6.4299 13.8948C8.81737 13.8948 10.7527 11.9594 10.7527 9.57199C10.7527 7.18457 8.81737 5.24918 6.4299 5.24918C4.04245 5.24918 2.10709 7.18457 2.10709 9.57199C2.10709 11.9594 4.04245 13.8948 6.4299 13.8948ZM6.4299 15.4667C3.17443 15.4667 0.535156 12.8275 0.535156 9.57199C0.535156 6.31652 3.17443 3.67725 6.4299 3.67725C9.68536 3.67725 12.3246 6.31652 12.3246 9.57199C12.3246 12.8275 9.68536 15.4667 6.4299 15.4667Z" fill="#FBCC5C"/>
<path d="M9.76841 12.3197C10.1769 11.8248 10.4696 11.2448 10.6254 10.6223C11.2479 10.4667 11.8278 10.1738 12.3228 9.76539C12.3001 10.4863 12.145 11.197 11.8647 11.8616C11.2001 12.1418 10.4895 12.297 9.76841 12.3197ZM5.38097 5.37767C4.75848 5.53329 4.17859 5.82614 3.68359 6.23453C3.70623 5.51364 3.86138 4.80297 4.14165 4.13836C4.80627 3.85808 5.51694 3.70294 6.23782 3.6803C5.82944 4.1753 5.53658 4.75518 5.38097 5.37767Z" fill="#5EA33B"/>
</svg>
