<svg width="40" height="40" viewBox="0 0 40 40" fill="none" xmlns="http://www.w3.org/2000/svg">
<path fill-rule="evenodd" clip-rule="evenodd" d="M19.9999 40C8.95418 40 -0.00012207 31.0457 -0.00012207 20C-0.00012207 8.9543 8.95418 0 19.9999 0C31.0456 0 39.9999 8.9543 39.9999 20C39.9999 31.0457 31.0456 40 19.9999 40Z" fill="#F4F5F7"/>
<path fill-rule="evenodd" clip-rule="evenodd" d="M10.8334 29.791C11.1786 29.791 11.4584 29.5112 11.4584 29.166V28.4993C11.4584 27.3718 12.3725 26.4577 13.5 26.4577H26.5C27.6276 26.4577 28.5417 27.3718 28.5417 28.4993V29.166C28.5417 29.5112 28.8215 29.791 29.1667 29.791C29.5119 29.791 29.7917 29.5112 29.7917 29.166V28.4993C29.7917 26.6814 28.318 25.2077 26.5 25.2077H13.5C11.6821 25.2077 10.2084 26.6814 10.2084 28.4993V29.166C10.2084 29.5112 10.4882 29.791 10.8334 29.791Z" fill="#0B0D17"/>
<path fill-rule="evenodd" clip-rule="evenodd" d="M13.5417 29.166C13.5417 28.8208 13.8216 28.541 14.1667 28.541H25.8334C26.1786 28.541 26.4584 28.8208 26.4584 29.166C26.4584 29.5112 26.1786 29.791 25.8334 29.791H14.1667C13.8216 29.791 13.5417 29.5112 13.5417 29.166Z" fill="#0B0D17"/>
<path fill-rule="evenodd" clip-rule="evenodd" d="M15.3766 18.7387C15.6207 18.4946 16.0164 18.4946 16.2605 18.7387L19.2931 21.7713C19.6999 22.1781 20.3594 22.1781 20.7662 21.7713L23.7988 18.7387C24.0429 18.4946 24.4386 18.4946 24.6827 18.7387C24.9268 18.9828 24.9268 19.3785 24.6827 19.6226L21.6501 22.6552C20.7552 23.5501 19.3042 23.5501 18.4092 22.6552L15.3766 19.6226C15.1326 19.3785 15.1326 18.9828 15.3766 18.7387Z" fill="#0B0D17"/>
<path fill-rule="evenodd" clip-rule="evenodd" d="M12.7084 10.833C12.7084 10.4878 12.9882 10.208 13.3334 10.208H14.1667C17.7335 10.208 20.625 13.0995 20.625 16.6663V21.6663C20.625 22.0115 20.3452 22.2913 20 22.2913C19.6549 22.2913 19.375 22.0115 19.375 21.6663V16.6663C19.375 13.7899 17.0432 11.458 14.1667 11.458H13.3334C12.9882 11.458 12.7084 11.1782 12.7084 10.833Z" fill="#0B0D17"/>
</svg>
