<svg width="18" height="18" viewBox="0 0 18 18" fill="none" xmlns="http://www.w3.org/2000/svg">
<path fill-rule="evenodd" clip-rule="evenodd" d="M5.07948 9.27642C4.95522 9.15217 4.75376 9.15217 4.62951 9.27642L3.38405 10.5219C2.22802 11.6779 2.22802 13.5522 3.38405 14.7082C4.54008 15.8643 6.41437 15.8643 7.5704 14.7082L8.81586 13.4628C8.94011 13.3385 8.94011 13.1371 8.81586 13.0128L5.07948 9.27642ZM3.83401 8.48093C4.39761 7.91733 5.31138 7.91733 5.87497 8.48093L9.61135 12.2173C10.1749 12.7809 10.1749 13.6947 9.61135 14.2583L8.36589 15.5037C6.77052 17.0991 4.18392 17.0991 2.58855 15.5037C0.993185 13.9084 0.993185 11.3218 2.58855 9.72639L3.83401 8.48093Z" fill="#0B0D17"/>
<path fill-rule="evenodd" clip-rule="evenodd" d="M8.3665 7.23564C8.58617 7.45531 8.58617 7.81146 8.3665 8.03113L6.49831 9.89932C6.27864 10.119 5.92248 10.119 5.70281 9.89932C5.48314 9.67965 5.48314 9.3235 5.70281 9.10383L7.571 7.23564C7.79067 7.01597 8.14683 7.01597 8.3665 7.23564Z" fill="#0B0D17"/>
<path fill-rule="evenodd" clip-rule="evenodd" d="M10.8567 9.72636C11.0764 9.94603 11.0764 10.3022 10.8567 10.5219L8.98854 12.39C8.76887 12.6097 8.41272 12.6097 8.19305 12.39C7.97338 12.1704 7.97338 11.8142 8.19305 11.5946L10.0612 9.72636C10.2809 9.50669 10.6371 9.50669 10.8567 9.72636Z" fill="#0B0D17"/>
<path fill-rule="evenodd" clip-rule="evenodd" d="M3.38408 14.7083C3.60375 14.928 3.60375 15.2841 3.38408 15.5038L1.13408 17.7538C0.914405 17.9735 0.55825 17.9735 0.33858 17.7538C0.11891 17.5341 0.11891 17.178 0.33858 16.9583L2.58858 14.7083C2.80825 14.4886 3.16441 14.4886 3.38408 14.7083Z" fill="#0B0D17"/>
<path fill-rule="evenodd" clip-rule="evenodd" d="M5.07979 10.972C5.29946 10.7523 5.65562 10.7523 5.87529 10.972L7.12075 12.2174C7.34042 12.4371 7.34042 12.7933 7.12075 13.0129C6.90108 13.2326 6.54492 13.2326 6.32525 13.0129L5.07979 11.7675C4.86012 11.5478 4.86012 11.1916 5.07979 10.972Z" fill="#0B0D17"/>
<path fill-rule="evenodd" clip-rule="evenodd" d="M13.6705 8.32123C13.7948 8.44549 13.9962 8.44549 14.1205 8.32123L15.366 7.07577C16.522 5.91974 16.522 4.04545 15.366 2.88942C14.2099 1.73339 12.3356 1.73339 11.1796 2.88942L9.93414 4.13488C9.80989 4.25914 9.80989 4.4606 9.93414 4.58485L13.6705 8.32123ZM14.916 9.11673C14.3524 9.68032 13.4386 9.68032 12.875 9.11673L9.13865 5.38035C8.57505 4.81675 8.57505 3.90298 9.13865 3.33939L10.3841 2.09393C11.9795 0.498559 14.5661 0.498559 16.1614 2.09393C17.7568 3.6893 17.7568 6.2759 16.1614 7.87127L14.916 9.11673Z" fill="#0B0D17"/>
<path fill-rule="evenodd" clip-rule="evenodd" d="M15.3659 2.88936C15.1463 2.66969 15.1463 2.31354 15.3659 2.09387L16.8659 0.593867C17.0856 0.374197 17.4417 0.374197 17.6614 0.593867C17.8811 0.813537 17.8811 1.16969 17.6614 1.38936L16.1614 2.88936C15.9417 3.10903 15.5856 3.10903 15.3659 2.88936Z" fill="#0B0D17"/>
<path fill-rule="evenodd" clip-rule="evenodd" d="M13.6702 6.62569C13.4505 6.84536 13.0944 6.84536 12.8747 6.62569L11.6293 5.38023C11.4096 5.16056 11.4096 4.8044 11.6293 4.58473C11.8489 4.36506 12.2051 4.36506 12.4247 4.58473L13.6702 5.83019C13.8899 6.04986 13.8899 6.40602 13.6702 6.62569Z" fill="#0B0D17"/>
</svg>
