<svg width="12" height="12" viewBox="0 0 12 12" fill="none" xmlns="http://www.w3.org/2000/svg">
<path d="M1 7C1.55228 7 2 6.55228 2 6C2 5.44772 1.55228 5 1 5C0.447715 5 0 5.44772 0 6C0 6.55228 0.447715 7 1 7Z" fill="#0B0D17"/>
<path d="M6 7C6.55228 7 7 6.55228 7 6C7 5.44772 6.55228 5 6 5C5.44772 5 5 5.44772 5 6C5 6.55228 5.44772 7 6 7Z" fill="#0B0D17"/>
<path d="M11 7C11.5523 7 12 6.55228 12 6C12 5.44772 11.5523 5 11 5C10.4477 5 10 5.44772 10 6C10 6.55228 10.4477 7 11 7Z" fill="#0B0D17"/>
</svg>
