<svg width="12" height="12" viewBox="0 0 12 12" fill="none" xmlns="http://www.w3.org/2000/svg">
<path d="M0 6C0 2.68629 2.68629 0 6 0C9.31371 0 12 2.68629 12 6C12 9.31371 9.31371 12 6 12C2.68629 12 0 9.31371 0 6Z" fill="#FF5858"/>
<g clip-path="url(#clip0_1953_5113)">
<path d="M6.76593 6.00001L10.1748 2.59148C10.2764 2.48987 10.3335 2.35205 10.3335 2.20834C10.3335 2.06464 10.2764 1.92682 10.1748 1.82521C10.0732 1.72359 9.93538 1.6665 9.79168 1.6665C9.64797 1.6665 9.51015 1.72359 9.40854 1.82521L6.00001 5.23409L2.59148 1.82521C2.48987 1.72359 2.35205 1.6665 2.20834 1.6665C2.06464 1.6665 1.92682 1.72359 1.82521 1.82521C1.72359 1.92682 1.6665 2.06464 1.6665 2.20834C1.6665 2.35205 1.72359 2.48987 1.82521 2.59148L5.23409 6.00001L1.82521 9.40854C1.72359 9.51015 1.6665 9.64797 1.6665 9.79168C1.6665 9.93538 1.72359 10.0732 1.82521 10.1748C1.92682 10.2764 2.06464 10.3335 2.20834 10.3335C2.35205 10.3335 2.48987 10.2764 2.59148 10.1748L6.00001 6.76593L9.40854 10.1748C9.51015 10.2764 9.64797 10.3335 9.79168 10.3335C9.93538 10.3335 10.0732 10.2764 10.1748 10.1748C10.2764 10.0732 10.3335 9.93538 10.3335 9.79168C10.3335 9.64797 10.2764 9.51015 10.1748 9.40854L6.76593 6.00001Z" fill="white"/>
</g>
<defs>
<clipPath id="clip0_1953_5113">
<rect width="8.66667" height="8.66667" fill="white" transform="translate(1.66663 1.6665)"/>
</clipPath>
</defs>
</svg>
