<svg width="40" height="40" viewBox="0 0 40 40" fill="none" xmlns="http://www.w3.org/2000/svg">
<path fill-rule="evenodd" clip-rule="evenodd" d="M19.9999 40C8.95418 40 -0.00012207 31.0457 -0.00012207 20C-0.00012207 8.9543 8.95418 0 19.9999 0C31.0456 0 39.9999 8.9543 39.9999 20C39.9999 31.0457 31.0456 40 19.9999 40Z" fill="#F4F5F7"/>
<path fill-rule="evenodd" clip-rule="evenodd" d="M10 12.5C10 11.1193 11.1193 10 12.5 10C13.8807 10 15 11.1193 15 12.5C15 13.8807 13.8807 15 12.5 15C11.1193 15 10 13.8807 10 12.5ZM12.5 11.25C11.8096 11.25 11.25 11.8096 11.25 12.5C11.25 13.1904 11.8096 13.75 12.5 13.75C13.1904 13.75 13.75 13.1904 13.75 12.5C13.75 11.8096 13.1904 11.25 12.5 11.25Z" fill="#0B0D17"/>
<path fill-rule="evenodd" clip-rule="evenodd" d="M13.5124 13.2337C13.715 12.9543 14.1058 12.892 14.3852 13.0946L15.9919 14.2596C16.2714 14.4623 16.3336 14.8531 16.131 15.1325C15.9284 15.412 15.5376 15.4742 15.2581 15.2716L13.6515 14.1066C13.372 13.904 13.3097 13.5132 13.5124 13.2337Z" fill="#0B0D17"/>
<path fill-rule="evenodd" clip-rule="evenodd" d="M10 27.5C10 26.1193 11.1193 25 12.5 25C13.8807 25 15 26.1193 15 27.5C15 28.8807 13.8807 30 12.5 30C11.1193 30 10 28.8807 10 27.5ZM12.5 26.25C11.8096 26.25 11.25 26.8096 11.25 27.5C11.25 28.1904 11.8096 28.75 12.5 28.75C13.1904 28.75 13.75 28.1904 13.75 27.5C13.75 26.8096 13.1904 26.25 12.5 26.25Z" fill="#0B0D17"/>
<path fill-rule="evenodd" clip-rule="evenodd" d="M16.1309 24.8664C16.3336 25.1458 16.2715 25.5366 15.9921 25.7393L14.3854 26.9051C14.106 27.1079 13.7152 27.0457 13.5125 26.7663C13.3098 26.487 13.3719 26.0961 13.6513 25.8934L15.258 24.7276C15.5373 24.5249 15.9282 24.587 16.1309 24.8664Z" fill="#0B0D17"/>
<path fill-rule="evenodd" clip-rule="evenodd" d="M25 12.5C25 11.1193 26.1193 10 27.5 10C28.8807 10 30 11.1193 30 12.5C30 13.8807 28.8807 15 27.5 15C26.1193 15 25 13.8807 25 12.5ZM27.5 11.25C26.8096 11.25 26.25 11.8096 26.25 12.5C26.25 13.1904 26.8096 13.75 27.5 13.75C28.1904 13.75 28.75 13.1904 28.75 12.5C28.75 11.8096 28.1904 11.25 27.5 11.25Z" fill="#0B0D17"/>
<path fill-rule="evenodd" clip-rule="evenodd" d="M26.4877 13.2337C26.6903 13.5132 26.628 13.904 26.3486 14.1066L24.7419 15.2716C24.4625 15.4742 24.0717 15.412 23.8691 15.1325C23.6664 14.8531 23.7287 14.4623 24.0082 14.2596L25.6148 13.0946C25.8943 12.892 26.2851 12.9543 26.4877 13.2337Z" fill="#0B0D17"/>
<path fill-rule="evenodd" clip-rule="evenodd" d="M25 27.5C25 26.1193 26.1193 25 27.5 25C28.8807 25 30 26.1193 30 27.5C30 28.8807 28.8807 30 27.5 30C26.1193 30 25 28.8807 25 27.5ZM27.5 26.25C26.8096 26.25 26.25 26.8096 26.25 27.5C26.25 28.1904 26.8096 28.75 27.5 28.75C28.1904 28.75 28.75 28.1904 28.75 27.5C28.75 26.8096 28.1904 26.25 27.5 26.25Z" fill="#0B0D17"/>
<path fill-rule="evenodd" clip-rule="evenodd" d="M23.8692 24.8664C24.0719 24.587 24.4627 24.5249 24.7421 24.7276L26.3488 25.8934C26.6281 26.0961 26.6903 26.487 26.4876 26.7663C26.2848 27.0457 25.894 27.1079 25.6147 26.9051L24.008 25.7393C23.7286 25.5366 23.6665 25.1458 23.8692 24.8664Z" fill="#0B0D17"/>
<path fill-rule="evenodd" clip-rule="evenodd" d="M20 16.875C19.3096 16.875 18.75 17.4346 18.75 18.125C18.75 18.8154 19.3096 19.375 20 19.375C21.3807 19.375 22.5 20.4943 22.5 21.875C22.5 23.2557 21.3807 24.375 20 24.375C18.6193 24.375 17.5 23.2557 17.5 21.875C17.5 21.5298 17.7798 21.25 18.125 21.25C18.4702 21.25 18.75 21.5298 18.75 21.875C18.75 22.5654 19.3096 23.125 20 23.125C20.6904 23.125 21.25 22.5654 21.25 21.875C21.25 21.1846 20.6904 20.625 20 20.625C18.6193 20.625 17.5 19.5057 17.5 18.125C17.5 16.7443 18.6193 15.625 20 15.625C21.3807 15.625 22.5 16.7443 22.5 18.125C22.5 18.4702 22.2202 18.75 21.875 18.75C21.5298 18.75 21.25 18.4702 21.25 18.125C21.25 17.4346 20.6904 16.875 20 16.875Z" fill="#0B0D17"/>
<path fill-rule="evenodd" clip-rule="evenodd" d="M20 14.375C20.3452 14.375 20.625 14.6548 20.625 15V16.25C20.625 16.5952 20.3452 16.875 20 16.875C19.6548 16.875 19.375 16.5952 19.375 16.25V15C19.375 14.6548 19.6548 14.375 20 14.375Z" fill="#0B0D17"/>
<path fill-rule="evenodd" clip-rule="evenodd" d="M20 23.125C20.3452 23.125 20.625 23.4048 20.625 23.75V25C20.625 25.3452 20.3452 25.625 20 25.625C19.6548 25.625 19.375 25.3452 19.375 25V23.75C19.375 23.4048 19.6548 23.125 20 23.125Z" fill="#0B0D17"/>
</svg>
