<svg width="29" height="36" viewBox="0 0 29 36" fill="none" xmlns="http://www.w3.org/2000/svg">
<path d="M17.7543 22.7782L11.1237 27.0539C10.1193 27.7015 9.83388 29.0351 10.4861 30.0324C11.1305 31.0176 12.4488 31.3062 13.449 30.6887L17.5684 27.8937L21.2071 25.4202C21.265 25.3818 21.3228 25.3442 21.3805 25.3073L21.5641 25.1827C21.669 25.1115 21.7776 25.0499 21.8889 24.9977C21.979 24.9458 22.0687 24.8956 22.1581 24.8472C24.3363 23.6683 27.0645 24.4658 28.2518 26.6286C29.2919 28.5232 28.817 30.8853 27.124 32.2381C27.3902 31.6041 27.3469 30.8547 26.9417 30.2352C26.2973 29.25 24.979 28.9614 23.9788 29.5789L19.8594 32.3738L16.2207 34.8474C16.1863 34.8696 16.1517 34.8914 16.117 34.913L15.8637 35.0849C15.6506 35.2295 15.422 35.3345 15.1868 35.4017C12.0191 36.7822 8.22018 35.7229 6.27464 32.7481C4.25126 29.6543 4.94934 25.5848 7.77484 23.3146C6.43248 22.7987 5.16004 22.0359 4.02652 21.0224C-0.963432 16.5611 -1.37135 8.93326 3.11541 3.98527C7.60217 -0.962723 15.2846 -1.35721 20.2745 3.10415C25.2645 7.56551 25.6724 15.1933 21.1856 20.1413C20.1802 21.2501 19.0144 22.1302 17.7543 22.7782ZM17.1116 16.5957C19.6872 13.7348 19.4531 9.32438 16.5886 6.74482C13.7241 4.16526 9.31402 4.39335 6.7384 7.25429C4.16278 10.1152 4.39694 14.5256 7.26142 17.1052C10.1259 19.6847 14.536 19.4566 17.1116 16.5957Z" fill="white"/>
</svg>
