<svg width="80" height="54" viewBox="0 0 80 54" fill="none" xmlns="http://www.w3.org/2000/svg">
<g clip-path="url(#clip0_2168_45490)">
<path d="M-4 27L84 27" stroke="#8C30F5"/>
<circle cx="40" cy="27" r="15.5" fill="white" stroke="#8C30F5"/>
<path d="M45 26H41V22C41 21.7348 40.8946 21.4804 40.7071 21.2929C40.5196 21.1054 40.2652 21 40 21C39.7348 21 39.4804 21.1054 39.2929 21.2929C39.1054 21.4804 39 21.7348 39 22V26H35C34.7348 26 34.4804 26.1054 34.2929 26.2929C34.1054 26.4804 34 26.7348 34 27C34 27.2652 34.1054 27.5196 34.2929 27.7071C34.4804 27.8946 34.7348 28 35 28H39V32C39 32.2652 39.1054 32.5196 39.2929 32.7071C39.4804 32.8946 39.7348 33 40 33C40.2652 33 40.5196 32.8946 40.7071 32.7071C40.8946 32.5196 41 32.2652 41 32V28H45C45.2652 28 45.5196 27.8946 45.7071 27.7071C45.8946 27.5196 46 27.2652 46 27C46 26.7348 45.8946 26.4804 45.7071 26.2929C45.5196 26.1054 45.2652 26 45 26Z" fill="#8C30F5"/>
</g>
<defs>
<clipPath id="clip0_2168_45490">
<rect width="80" height="54" fill="white"/>
</clipPath>
</defs>
</svg>
