<svg width="80" height="54" viewBox="0 0 80 54" fill="none" xmlns="http://www.w3.org/2000/svg">
<g clip-path="url(#clip0_2168_45495)">
<path d="M-4 27L84 27" stroke="#8C30F5"/>
<circle cx="40" cy="27" r="15.5" fill="white" stroke="#8C30F5"/>
<path d="M41.121 21.293C40.9335 21.4805 40.8282 21.7348 40.8282 22C40.8282 22.2652 40.9335 22.5195 41.121 22.707L44.413 26L34 26.007C33.7348 26.007 33.4804 26.1124 33.2929 26.2999C33.1054 26.4874 33 26.7418 33 27.007C33 27.2722 33.1054 27.5266 33.2929 27.7141C33.4804 27.9016 33.7348 28.007 34 28.007L44.414 28L41.121 31.293C41.0255 31.3852 40.9493 31.4956 40.8969 31.6176C40.8445 31.7396 40.8169 31.8708 40.8157 32.0036C40.8146 32.1364 40.8399 32.2681 40.8902 32.391C40.9405 32.5138 41.0147 32.6255 41.1086 32.7194C41.2025 32.8133 41.3141 32.8875 41.437 32.9378C41.5599 32.9881 41.6916 33.0134 41.8244 33.0123C41.9572 33.0111 42.0884 32.9835 42.2104 32.9311C42.3324 32.8787 42.4428 32.8025 42.535 32.707L46.121 29.122C46.3996 28.8434 46.6207 28.5127 46.7715 28.1487C46.9222 27.7847 46.9999 27.3945 46.9999 27.0005C46.9999 26.6065 46.9222 26.2163 46.7715 25.8523C46.6207 25.4883 46.3996 25.1576 46.121 24.879L42.535 21.293C42.3475 21.1055 42.0932 21.0002 41.828 21.0002C41.5628 21.0002 41.3085 21.1055 41.121 21.293Z" fill="#8C30F5"/>
</g>
<defs>
<clipPath id="clip0_2168_45495">
<rect width="80" height="54" fill="white"/>
</clipPath>
</defs>
</svg>
