<svg width="17" height="16" viewBox="0 0 17 16" fill="none" xmlns="http://www.w3.org/2000/svg">
<path fill-rule="evenodd" clip-rule="evenodd" d="M5.83301 8.00001C5.83301 7.63182 6.13148 7.33334 6.49967 7.33334L15.833 7.33334C16.2012 7.33334 16.4997 7.63182 16.4997 8.00001C16.4997 8.3682 16.2012 8.66668 15.833 8.66668L6.49967 8.66668C6.13148 8.66668 5.83301 8.3682 5.83301 8.00001Z" fill="#0B0D17"/>
<path fill-rule="evenodd" clip-rule="evenodd" d="M12.7194 4.83824C12.9797 4.57789 13.4018 4.57789 13.6622 4.83824L16.3525 7.52859C16.4776 7.65362 16.5478 7.82319 16.5478 8C16.5478 8.17681 16.4776 8.34638 16.3525 8.4714L13.6622 11.1618C13.4018 11.4221 12.9797 11.4221 12.7194 11.1618C12.459 10.9014 12.459 10.4793 12.7194 10.219L14.9383 8L12.7194 5.78105C12.459 5.5207 12.459 5.09859 12.7194 4.83824Z" fill="#0B0D17"/>
<path fill-rule="evenodd" clip-rule="evenodd" d="M8.28009 1.55323C4.71964 1.55323 1.83333 4.43954 1.83333 7.99998C1.83333 11.5604 4.71964 14.4467 8.28009 14.4467C9.3396 14.4467 10.3376 14.1917 11.2179 13.7402C11.5455 13.5721 11.9473 13.7015 12.1153 14.0291C12.2833 14.3567 12.154 14.7585 11.8264 14.9265C10.7622 15.4724 9.55611 15.7801 8.28009 15.7801C3.98326 15.7801 0.5 12.2968 0.5 7.99998C0.5 3.70316 3.98326 0.219894 8.28009 0.219894C9.55611 0.219894 10.7622 0.527599 11.8264 1.07344C12.154 1.24148 12.2833 1.64328 12.1153 1.97089C11.9473 2.2985 11.5455 2.42785 11.2179 2.25981C10.3376 1.80831 9.3396 1.55323 8.28009 1.55323Z" fill="#0B0D17"/>
</svg>
