<svg width="20" height="21" viewBox="0 0 20 21" fill="none" xmlns="http://www.w3.org/2000/svg">
<path fill-rule="evenodd" clip-rule="evenodd" d="M10.0002 8.03272C8.63752 8.03272 7.53288 9.13736 7.53288 10.5C7.53288 11.8626 8.63752 12.9673 10.0002 12.9673C11.3628 12.9673 12.4674 11.8626 12.4674 10.5C12.4674 9.13736 11.3628 8.03272 10.0002 8.03272ZM5.86621 10.5C5.86621 8.21689 7.71704 6.36606 10.0002 6.36606C12.2833 6.36606 14.1341 8.21689 14.1341 10.5C14.1341 12.7831 12.2833 14.634 10.0002 14.634C7.71704 14.634 5.86621 12.7831 5.86621 10.5Z" fill="#14142B"/>
<path fill-rule="evenodd" clip-rule="evenodd" d="M7.86958 1.70702C8.83396 0.0976588 11.166 0.0976631 12.1304 1.70702L12.7128 2.67886C12.8978 2.98759 13.263 3.13888 13.6122 3.05139L14.7111 2.77599C16.531 2.31992 18.1801 3.96895 17.724 5.78886L17.4486 6.88784C17.3611 7.23696 17.5124 7.60222 17.8211 7.78722L18.793 8.36958C20.4023 9.33396 20.4023 11.666 18.793 12.6304L17.8211 13.2128C17.5124 13.3978 17.3611 13.763 17.4486 14.1122L17.724 15.2111C18.1801 17.031 16.531 18.6801 14.7111 18.224L13.6122 17.9486C13.263 17.8611 12.8978 18.0124 12.7128 18.3211L12.1304 19.293C11.166 20.9023 8.83396 20.9023 7.86958 19.293L7.28722 18.3211C7.10222 18.0124 6.73697 17.8611 6.38784 17.9486L5.28886 18.224C3.46895 18.6801 1.81992 17.031 2.27599 15.2111L2.55139 14.1122C2.63888 13.763 2.48759 13.3978 2.17886 13.2128L1.20702 12.6304C-0.402341 11.666 -0.402337 9.33396 1.20702 8.36958L2.17886 7.78722L2.55812 8.42013L2.17886 7.78722C2.48759 7.60222 2.63888 7.23697 2.55139 6.88784L2.27599 5.78886C1.81992 3.96895 3.46895 2.31992 5.28886 2.77599L6.38784 3.05139C6.73697 3.13888 7.10222 2.98759 7.28722 2.67886L7.86958 1.70702ZM10.7008 2.56371C10.3836 2.03432 9.61644 2.03432 9.29922 2.5637L8.71686 3.53554C8.15444 4.4741 7.04406 4.93404 5.98271 4.66807L4.88372 4.39266C4.28508 4.24264 3.74264 4.78508 3.89266 5.38372L4.16807 6.48271C4.43404 7.54406 3.97411 8.65444 3.03554 9.21686L2.06371 9.79921C1.53432 10.1164 1.53432 10.8836 2.0637 11.2008L3.03554 11.7831C3.9741 12.3456 4.43404 13.4559 4.16807 14.5173L3.89266 15.6163C3.74264 16.2149 4.28508 16.7574 4.88372 16.6073L5.98271 16.3319C7.04406 16.066 8.15444 16.5259 8.71686 17.4645L9.29921 18.4363C9.61644 18.9657 10.3836 18.9657 10.7008 18.4363L11.2831 17.4645C11.8456 16.5259 12.9559 16.066 14.0173 16.3319L15.1163 16.6073C15.7149 16.7574 16.2574 16.2149 16.1073 15.6163L15.8319 14.5173C15.566 13.4559 16.0259 12.3456 16.9645 11.7831L17.9363 11.2008C18.4657 10.8836 18.4657 10.1164 17.9363 9.79922L16.9645 9.21686C16.0259 8.65444 15.566 7.54406 15.8319 6.48271L16.1073 5.38372C16.2574 4.78508 15.7149 4.24264 15.1163 4.39266L14.0173 4.66807C12.9559 4.93404 11.8456 4.47411 11.2831 3.53554L10.7008 2.56371Z" fill="#14142B"/>
</svg>
