<svg width="24" height="23" viewBox="0 0 24 23" fill="none" xmlns="http://www.w3.org/2000/svg">
<g clip-path="url(#clip0_6_43)">
<path d="M22.6011 0.685791L13.5908 7.35093L15.2708 3.42179L22.6011 0.685791Z" fill="#E17726" stroke="#E17726" stroke-width="0.25" stroke-linecap="round" stroke-linejoin="round"/>
<path d="M1.82399 0.685791L10.752 7.40579L9.15428 3.42865L1.82399 0.685791ZM19.3577 16.1349L16.9577 19.7966L22.0937 21.2092L23.5611 16.2172L19.3577 16.1349V16.1349ZM0.87085 16.2172L2.33142 21.2092L7.45371 19.7966L5.06742 16.1349L0.87085 16.2172V16.2172Z" fill="#E27625" stroke="#E27625" stroke-width="0.25" stroke-linecap="round" stroke-linejoin="round"/>
<path d="M7.17946 9.94967L5.75317 12.1028L10.8275 12.336L10.6629 6.87082L7.17946 9.95653V9.94967ZM17.2457 9.95653L13.7075 6.80225L13.5909 12.336L18.6652 12.1028L17.2457 9.95653V9.95653ZM7.45374 19.7965L10.5326 18.3154L7.88575 16.2582L7.45374 19.7965ZM13.8995 18.3085L16.9577 19.7965L16.5463 16.2514L13.8995 18.3085Z" fill="#E27625" stroke="#E27625" stroke-width="0.25" stroke-linecap="round" stroke-linejoin="round"/>
<path d="M16.9577 19.7966L13.8995 18.3154L14.1463 20.304L14.1189 21.1474L16.9577 19.7966ZM7.45374 19.7966L10.3063 21.1474L10.2857 20.304L10.5326 18.3154L7.45374 19.7966Z" fill="#D5BFB2" stroke="#D5BFB2" stroke-width="0.25" stroke-linecap="round" stroke-linejoin="round"/>
<path d="M10.3543 14.9348L7.81714 14.1942L9.61371 13.3714L10.3611 14.9348H10.3543ZM14.064 14.9348L14.8183 13.3645L16.6217 14.1874L14.064 14.9416V14.9348Z" fill="#233447" stroke="#233447" stroke-width="0.25" stroke-linecap="round" stroke-linejoin="round"/>
<path d="M7.45367 19.7965L7.89938 16.1348L5.06738 16.2171L7.45367 19.7965ZM16.5257 16.1348L16.9577 19.7965L19.3577 16.2171L16.5257 16.1348ZM18.672 12.1028L13.5977 12.3359L14.064 14.9416L14.8182 13.3645L16.6217 14.1874L18.672 12.1028V12.1028ZM7.8171 14.1942L9.61367 13.3714L10.3611 14.9348L10.8342 12.3291L5.75995 12.1028L7.8171 14.1942V14.1942Z" fill="#CC6228" stroke="#CC6228" stroke-width="0.25" stroke-linecap="round" stroke-linejoin="round"/>
<path d="M5.76001 12.1028L7.88572 16.2514L7.81715 14.1942L5.76001 12.1028ZM16.6217 14.1942L16.5394 16.2514L18.6652 12.1028L16.6217 14.1942ZM10.8343 12.3359L10.3543 14.9416L10.9577 18.0136L11.0949 13.9611L10.8343 12.3359ZM13.5909 12.3359L13.344 13.9542L13.4674 18.0136L14.064 14.9348L13.5909 12.3291V12.3359Z" fill="#E27525" stroke="#E27525" stroke-width="0.25" stroke-linecap="round" stroke-linejoin="round"/>
<path d="M14.064 14.9349L13.4674 18.0138L13.8994 18.3155L16.5394 16.2583L16.6217 14.1943L14.064 14.9349ZM7.81716 14.1943L7.88573 16.2515L10.5326 18.3086L10.9577 18.0138L10.3612 14.9349L7.8103 14.1943H7.81716Z" fill="#F5841F" stroke="#F5841F" stroke-width="0.25" stroke-linecap="round" stroke-linejoin="round"/>
<path d="M14.1257 21.1475L14.1463 20.3041L13.9132 20.1121H10.512L10.2857 20.3041L10.3063 21.1475L7.45374 19.7966L8.45488 20.6195L10.4777 22.0115H13.9406L15.9703 20.6126L16.9577 19.7966L14.1189 21.1475H14.1257Z" fill="#C0AC9D" stroke="#C0AC9D" stroke-width="0.25" stroke-linecap="round" stroke-linejoin="round"/>
<path d="M13.8995 18.3085L13.4675 18.0137H10.9578L10.5326 18.3154L10.2858 20.304L10.5121 20.112H13.9132L14.1463 20.304L13.8995 18.3154V18.3085Z" fill="#161616" stroke="#161616" stroke-width="0.25" stroke-linecap="round" stroke-linejoin="round"/>
<path d="M22.9851 7.78293L23.7394 4.11436L22.6011 0.685791L13.8925 7.1315L17.2457 9.94979L21.9771 11.3281L23.0194 10.1144L22.5668 9.78522L23.2868 9.12693L22.7382 8.70179L23.4582 8.15322L22.9782 7.78293H22.9851ZM0.685669 4.1075L1.45367 7.78293L0.959955 8.14636L1.69367 8.69493L1.1451 9.12693L1.85824 9.78522L1.40567 10.1144L2.44795 11.3281L7.17938 9.95665L10.5325 7.12465L1.82395 0.685791L0.685669 4.1075Z" fill="#763E1A" stroke="#763E1A" stroke-width="0.25" stroke-linecap="round" stroke-linejoin="round"/>
<path d="M21.9771 11.3279L17.2457 9.95649L18.672 12.1028L16.5463 16.2513L19.3577 16.2171H23.5611L21.9771 11.3279ZM7.17942 9.94963L2.44799 11.3279L0.87085 16.2171H5.07428L7.88571 16.2513L5.75999 12.1028L7.18628 9.94963H7.17942ZM13.5908 12.3359L13.8994 7.12449L15.2709 3.42163H9.15428L10.5257 7.12449L10.8343 12.3359L10.9509 13.9679V18.0136H13.4674L13.4811 13.9679L13.5908 12.3359Z" fill="#F5841F" stroke="#F5841F" stroke-width="0.25" stroke-linecap="round" stroke-linejoin="round"/>
</g>
<defs>
<clipPath id="clip0_6_43">
<rect width="24" height="22.6286" fill="white"/>
</clipPath>
</defs>
</svg>
