<svg width="17" height="16" viewBox="0 0 17 16" fill="none" xmlns="http://www.w3.org/2000/svg">
<g clip-path="url(#clip0_2090_989)">
<path d="M15.8333 7.33333H9.16667V0.666667C9.16667 0.489856 9.09643 0.320286 8.97141 0.195262C8.84638 0.0702379 8.67681 0 8.5 0V0C8.32319 0 8.15362 0.0702379 8.0286 0.195262C7.90357 0.320286 7.83333 0.489856 7.83333 0.666667V7.33333H1.16667C0.989856 7.33333 0.820286 7.40357 0.695262 7.5286C0.570238 7.65362 0.5 7.82319 0.5 8H0.5C0.5 8.17681 0.570238 8.34638 0.695262 8.47141C0.820286 8.59643 0.989856 8.66667 1.16667 8.66667H7.83333V15.3333C7.83333 15.5101 7.90357 15.6797 8.0286 15.8047C8.15362 15.9298 8.32319 16 8.5 16C8.67681 16 8.84638 15.9298 8.97141 15.8047C9.09643 15.6797 9.16667 15.5101 9.16667 15.3333V8.66667H15.8333C16.0101 8.66667 16.1797 8.59643 16.3047 8.47141C16.4298 8.34638 16.5 8.17681 16.5 8C16.5 7.82319 16.4298 7.65362 16.3047 7.5286C16.1797 7.40357 16.0101 7.33333 15.8333 7.33333Z" fill="white"/>
</g>
<defs>
<clipPath id="clip0_2090_989">
<rect width="16" height="16" fill="white" transform="translate(0.5)"/>
</clipPath>
</defs>
</svg>
