<svg width="40" height="40" viewBox="0 0 40 40" fill="none" xmlns="http://www.w3.org/2000/svg">
<path d="M25.1016 13.8306C25.1016 13.8306 25.1016 13.8306 25.0742 13.8306C24.0352 13.3384 22.9414 13.0103 21.8203 12.8188C21.793 12.7915 21.7656 12.8188 21.7656 12.8188C21.6016 13.0923 21.4648 13.3931 21.3555 13.6665C20.125 13.4751 18.8945 13.4751 17.6641 13.6665C17.5547 13.3931 17.418 13.0923 17.2539 12.8188C17.2539 12.8188 17.2266 12.7915 17.1992 12.8188C16.0781 13.0103 14.9844 13.3384 13.9453 13.8306C13.918 13.8306 13.918 13.8306 13.918 13.8306C11.8398 16.9478 11.2656 19.9829 11.5391 22.9907C11.5391 22.9907 11.5391 23.0181 11.5664 23.0181C12.7695 23.9204 14.1367 24.604 15.5859 25.0415C15.5859 25.0688 15.6133 25.0415 15.6406 25.0415C15.9414 24.604 16.2148 24.1665 16.4609 23.7017C16.4609 23.6743 16.4609 23.647 16.4336 23.6196C15.9961 23.4556 15.5586 23.2642 15.1758 23.0181C15.1484 23.0181 15.1211 22.9634 15.1758 22.936C15.2578 22.8813 15.3398 22.8267 15.4219 22.7446C15.4219 22.7446 15.4492 22.7446 15.4766 22.7446C18.1016 23.9478 20.9453 23.9478 23.543 22.7446C23.5703 22.7446 23.5703 22.7446 23.5977 22.7446C23.6797 22.8267 23.7617 22.8813 23.8438 22.936C23.8711 22.9634 23.8711 23.0181 23.8438 23.0181C23.4336 23.2642 23.0234 23.4556 22.5859 23.6196C22.5586 23.647 22.5586 23.6743 22.5586 23.7017C22.8047 24.1665 23.0781 24.604 23.3789 25.0415C23.4062 25.0415 23.4062 25.0688 23.4336 25.0415C24.8828 24.604 26.25 23.9204 27.4531 23.0181C27.4805 23.0181 27.4805 22.9907 27.4805 22.9907C27.8086 19.5181 26.9062 16.5103 25.1016 13.8306ZM16.8438 21.1587C16.0508 21.1587 15.3945 20.4204 15.3945 19.5454C15.3945 18.6431 16.0508 17.9321 16.8438 17.9321C17.6641 17.9321 18.293 18.6431 18.293 19.5454C18.293 20.4204 17.6367 21.1587 16.8438 21.1587ZM22.1758 21.1587C21.3828 21.1587 20.7539 20.4204 20.7539 19.5454C20.7539 18.6431 21.3828 17.9321 22.1758 17.9321C22.9961 17.9321 23.6523 18.6431 23.625 19.5454C23.625 20.4204 22.9961 21.1587 22.1758 21.1587Z" fill="#8C30F5"/>
<path d="M20 39C9.50659 39 1 30.4934 1 20H-1C-1 31.598 8.40202 41 20 41V39ZM39 20C39 30.4934 30.4934 39 20 39V41C31.598 41 41 31.598 41 20H39ZM20 1C30.4934 1 39 9.50659 39 20H41C41 8.40202 31.598 -1 20 -1V1ZM20 -1C8.40202 -1 -1 8.40202 -1 20H1C1 9.50659 9.50659 1 20 1V-1Z" fill="#8C30F5"/>
</svg>
