<svg width="40" height="40" viewBox="0 0 40 40" fill="none" xmlns="http://www.w3.org/2000/svg">
<path d="M27.5876 14.738C27.7927 13.781 27.2458 13.405 26.6306 13.6443L13.0271 18.8737C12.1042 19.2497 12.1384 19.7624 12.8904 20.0017L16.3425 21.0612L24.4089 16.0027C24.7849 15.7292 25.1609 15.9001 24.8532 16.1394L18.3249 22.0183L18.0857 25.6071C18.4616 25.6071 18.5984 25.4704 18.8034 25.2653L20.4783 23.6247L23.9988 26.2224C24.6482 26.5984 25.1267 26.3933 25.2976 25.6413L27.5876 14.738Z" fill="#8C30F5"/>
<path d="M20 39C9.50659 39 1 30.4934 1 20H-1C-1 31.598 8.40202 41 20 41V39ZM39 20C39 30.4934 30.4934 39 20 39V41C31.598 41 41 31.598 41 20H39ZM20 1C30.4934 1 39 9.50659 39 20H41C41 8.40202 31.598 -1 20 -1V1ZM20 -1C8.40202 -1 -1 8.40202 -1 20H1C1 9.50659 9.50659 1 20 1V-1Z" fill="#8C30F5"/>
</svg>
