<svg width="20" height="21" viewBox="0 0 20 21" fill="none" xmlns="http://www.w3.org/2000/svg">
<g clip-path="url(#clip0_1937_2011)">
<path d="M19.2174 6.00996C19.6488 6.00996 19.9986 5.66025 19.9986 5.22883V4.40864C19.9986 2.25341 18.2451 0.5 16.0899 0.5C16.0899 0.5 3.84529 0.501836 3.8151 0.50539C2.78443 0.5414 1.79438 0.983678 1.08074 1.73146C0.349242 2.49791 -0.0321071 3.49479 0.00378598 4.54366C0.00230182 4.56354 0.00152069 15.8102 0.00152069 15.8102C0.00152069 18.3962 2.10535 20.5 4.69129 20.5H16.0899C18.2451 20.5 19.9986 18.7466 19.9986 16.5914V10.6607C19.9986 8.50545 18.2451 6.75204 16.0899 6.75204H3.90715C2.653 6.75204 1.6248 5.7718 1.56633 4.52042C1.53661 3.88411 1.76552 3.2767 2.21084 2.81005C2.66261 2.33668 3.29709 2.06524 3.95152 2.06524C3.9746 2.06524 16.0898 2.06227 16.0898 2.06227C17.3836 2.06227 18.4362 3.11485 18.4362 4.40864V5.22883C18.4363 5.66025 18.786 6.00996 19.2174 6.00996ZM3.90715 8.31431H16.0899C17.3837 8.31431 18.4362 9.36689 18.4362 10.6607V16.5914C18.4362 17.8852 17.3837 18.9377 16.0899 18.9377H4.69129C2.96678 18.9377 1.56379 17.5347 1.56379 15.8102V7.53634C2.21713 8.02572 3.02892 8.31431 3.90715 8.31431ZM16.874 13.626C16.874 14.1653 16.4369 14.6024 15.8976 14.6024C14.6024 14.551 14.6028 12.7008 15.8976 12.6496C16.4369 12.6496 16.874 13.0868 16.874 13.626ZM16.874 4.40864C16.874 3.97722 16.5243 3.6275 16.0929 3.6275H3.90719C2.87078 3.66875 2.87156 5.14888 3.90719 5.18977H16.0929C16.5243 5.18977 16.874 4.84006 16.874 4.40864Z" fill="currentColor"/>
</g>
<defs>
<clipPath id="clip0_1937_2011">
<rect width="20" height="20" fill="white" transform="translate(0 0.5)"/>
</clipPath>
</defs>
</svg>
