<svg width="24" height="24" viewBox="0 0 24 24" fill="none" xmlns="http://www.w3.org/2000/svg">
<path fill-rule="evenodd" clip-rule="evenodd" d="M9.82733 1.35338C10.2452 0.542934 11.0666 0 12 0C12.9334 0 13.7548 0.542934 14.1727 1.35338L14.1763 1.36043L23.7082 20.2148C24.1093 20.9963 24.0965 21.9397 23.6724 22.7096C23.2445 23.4866 22.4405 23.9999 21.5336 24H2.46654C1.55964 23.9999 0.755535 23.4866 0.327606 22.7096C-0.0964535 21.9397 -0.109289 20.9964 0.291776 20.2148L9.82733 1.35338ZM11.6064 2.26711L2.07164 21.1271C1.97309 21.3183 1.97674 21.5582 2.07947 21.7448C2.179 21.9255 2.33554 21.9999 2.46654 22M11.6064 2.26711C11.705 2.07806 11.8662 2 12 2C12.1338 2 12.295 2.07807 12.3936 2.26716L21.9249 21.1202L21.9284 21.1271C22.0269 21.3183 22.0233 21.5582 21.9205 21.7448C21.821 21.9255 21.6645 21.9999 21.5335 22C21.5335 22 21.5334 22 21.5335 22H2.46654" fill="#FFB930"/>
<path fill-rule="evenodd" clip-rule="evenodd" d="M12 17.4998C12.5523 17.4998 13 17.9475 13 18.4998L12 17.4998Z" fill="#FFB930"/>
<path fill-rule="evenodd" clip-rule="evenodd" d="M11 18.4998C11 17.9475 11.4477 17.4998 12 17.4998L11 18.4998Z" fill="#FFB930"/>
<path fill-rule="evenodd" clip-rule="evenodd" d="M12 19.4998C11.4477 19.4998 11 19.052 11 18.4998L12 19.4998Z" fill="#FFB930"/>
<path fill-rule="evenodd" clip-rule="evenodd" d="M13 18.4998C13 19.052 12.5523 19.4998 12 19.4998L13 18.4998Z" fill="#FFB930"/>
<path d="M12 17.4998C12.5523 17.4998 13 17.9475 13 18.4998C13 19.052 12.5523 19.4998 12 19.4998C11.4477 19.4998 11 19.052 11 18.4998C11 17.9475 11.4477 17.4998 12 17.4998Z" fill="#FFB930"/>
<path fill-rule="evenodd" clip-rule="evenodd" d="M12 7C12.5523 7 13 7.44772 13 8V15C13 15.5523 12.5523 16 12 16C11.4477 16 11 15.5523 11 15V8C11 7.44772 11.4477 7 12 7Z" fill="#FFB930"/>
</svg>
