<svg width="335" height="322" viewBox="0 0 335 322" fill="none" xmlns="http://www.w3.org/2000/svg">
<circle opacity="0.1" cx="124.5" cy="203.5" r="85.5" fill="#8C30F5"/>
<circle opacity="0.1" cx="251.5" cy="97.5" r="64.5" fill="#FFB930"/>
<circle opacity="0.1" cx="164" cy="111" r="39" fill="#FF5858"/>
<ellipse cx="120" cy="251.5" rx="21" ry="20.5" stroke="#8C30F5" stroke-width="10" stroke-dasharray="0.5 8"/>
<ellipse cx="287" cy="121.5" rx="21" ry="20.5" stroke="#FFB930" stroke-width="10" stroke-dasharray="0.5 8"/>
<path d="M62 181.667H67.4665C72.9894 181.667 77.4665 186.144 77.4665 191.667V241.667C77.4665 247.19 81.9437 251.667 87.4665 251.667H109" stroke="black"/>
<path d="M229 181.667H234.467C239.989 181.667 244.467 177.19 244.467 171.667V131.667C244.467 126.144 248.944 121.667 254.467 121.667H276" stroke="black"/>
<path d="M187 181.667H178.572C173.049 181.667 168.572 186.144 168.572 191.667V241.667C168.572 247.19 164.095 251.667 158.572 251.667H131" stroke="black"/>
<rect x="187" y="161.667" width="42" height="42" rx="10" fill="#FFB930"/>
<path d="M193.881 183.217V183.109C193.881 182.423 193.952 181.799 194.096 181.239C194.242 180.679 194.434 180.188 194.672 179.765C194.913 179.338 195.175 178.985 195.458 178.705C195.741 178.425 196.023 178.223 196.303 178.1L196.571 178.842C196.386 178.979 196.203 179.167 196.024 179.408C195.845 179.646 195.683 179.939 195.536 180.287C195.393 180.632 195.277 181.039 195.189 181.508C195.102 181.973 195.058 182.504 195.058 183.1V183.227C195.058 183.822 195.102 184.354 195.189 184.823C195.277 185.289 195.393 185.696 195.536 186.044C195.683 186.396 195.845 186.692 196.024 186.933C196.203 187.174 196.386 187.364 196.571 187.504L196.303 188.227C196.023 188.103 195.741 187.901 195.458 187.621C195.175 187.344 194.913 186.993 194.672 186.566C194.434 186.143 194.242 185.652 194.096 185.092C193.952 184.529 193.881 183.904 193.881 183.217ZM200.434 184.848V178.5H201.85V186H200.575L200.434 184.848ZM197.094 183.422V183.319C197.094 182.916 197.139 182.549 197.23 182.221C197.322 181.889 197.455 181.604 197.631 181.366C197.807 181.129 198.023 180.945 198.28 180.814C198.537 180.684 198.83 180.619 199.159 180.619C199.468 180.619 199.739 180.684 199.97 180.814C200.204 180.945 200.403 181.13 200.565 181.371C200.731 181.609 200.865 181.89 200.966 182.216C201.067 182.538 201.14 182.891 201.186 183.275V183.5C201.14 183.868 201.067 184.21 200.966 184.525C200.865 184.841 200.731 185.118 200.565 185.355C200.403 185.59 200.204 185.772 199.97 185.902C199.735 186.033 199.462 186.098 199.149 186.098C198.821 186.098 198.528 186.031 198.271 185.897C198.017 185.764 197.802 185.577 197.626 185.336C197.453 185.095 197.322 184.812 197.23 184.486C197.139 184.161 197.094 183.806 197.094 183.422ZM198.5 183.319V183.422C198.5 183.64 198.516 183.843 198.549 184.032C198.585 184.221 198.642 184.389 198.72 184.535C198.801 184.678 198.905 184.791 199.032 184.872C199.162 184.95 199.32 184.989 199.506 184.989C199.747 184.989 199.945 184.936 200.102 184.828C200.258 184.717 200.377 184.566 200.458 184.374C200.543 184.182 200.591 183.961 200.604 183.71V183.07C200.595 182.865 200.565 182.681 200.517 182.519C200.471 182.353 200.403 182.211 200.312 182.094C200.224 181.977 200.113 181.885 199.979 181.82C199.849 181.755 199.695 181.723 199.516 181.723C199.333 181.723 199.177 181.765 199.047 181.85C198.917 181.931 198.811 182.043 198.729 182.187C198.651 182.33 198.593 182.499 198.554 182.694C198.518 182.886 198.5 183.095 198.5 183.319ZM205.365 183.109V183.217C205.365 183.881 205.29 184.493 205.141 185.053C204.991 185.609 204.792 186.103 204.545 186.532C204.301 186.965 204.032 187.325 203.739 187.611C203.45 187.898 203.16 188.103 202.87 188.227L202.597 187.504C202.782 187.367 202.963 187.178 203.139 186.938C203.318 186.697 203.48 186.4 203.627 186.049C203.773 185.701 203.889 185.292 203.974 184.823C204.062 184.354 204.105 183.822 204.105 183.227V183.1C204.105 182.504 204.062 181.972 203.974 181.503C203.886 181.034 203.767 180.626 203.617 180.277C203.471 179.926 203.308 179.631 203.129 179.394C202.953 179.153 202.776 178.964 202.597 178.827L202.87 178.1C203.16 178.223 203.45 178.43 203.739 178.72C204.032 179.006 204.301 179.364 204.545 179.794C204.792 180.224 204.991 180.718 205.141 181.278C205.29 181.835 205.365 182.445 205.365 183.109ZM209.442 180.106L207.509 186H205.951L208.593 178.891H209.584L209.442 180.106ZM211.049 186L209.11 180.106L208.954 178.891H209.955L212.611 186H211.049ZM210.961 183.354V184.501H207.206V183.354H210.961ZM214.433 181.732V188.031H213.026V180.717H214.33L214.433 181.732ZM217.777 183.3V183.402C217.777 183.786 217.732 184.143 217.641 184.472C217.553 184.8 217.423 185.087 217.25 185.331C217.077 185.572 216.863 185.761 216.605 185.897C216.352 186.031 216.059 186.098 215.727 186.098C215.404 186.098 215.124 186.033 214.887 185.902C214.649 185.772 214.449 185.59 214.286 185.355C214.127 185.118 213.998 184.843 213.9 184.53C213.803 184.218 213.728 183.882 213.676 183.524V183.256C213.728 182.872 213.803 182.52 213.9 182.201C213.998 181.879 214.127 181.601 214.286 181.366C214.449 181.129 214.647 180.945 214.882 180.814C215.119 180.684 215.398 180.619 215.717 180.619C216.052 180.619 216.347 180.683 216.601 180.81C216.858 180.937 217.073 181.119 217.245 181.356C217.421 181.594 217.553 181.877 217.641 182.206C217.732 182.535 217.777 182.899 217.777 183.3ZM216.366 183.402V183.3C216.366 183.075 216.347 182.868 216.308 182.68C216.272 182.488 216.213 182.32 216.132 182.177C216.054 182.034 215.95 181.923 215.819 181.845C215.692 181.763 215.538 181.723 215.355 181.723C215.163 181.723 214.999 181.754 214.862 181.815C214.729 181.877 214.62 181.967 214.535 182.084C214.451 182.201 214.387 182.341 214.345 182.504C214.302 182.667 214.276 182.851 214.267 183.056V183.734C214.283 183.975 214.328 184.192 214.403 184.384C214.478 184.573 214.594 184.722 214.75 184.833C214.906 184.944 215.111 184.999 215.365 184.999C215.551 184.999 215.707 184.958 215.834 184.877C215.961 184.792 216.063 184.677 216.142 184.53C216.223 184.384 216.28 184.215 216.312 184.022C216.348 183.83 216.366 183.624 216.366 183.402ZM220.058 181.732V188.031H218.651V180.717H219.955L220.058 181.732ZM223.402 183.3V183.402C223.402 183.786 223.357 184.143 223.266 184.472C223.178 184.8 223.048 185.087 222.875 185.331C222.702 185.572 222.488 185.761 222.23 185.897C221.977 186.031 221.684 186.098 221.352 186.098C221.029 186.098 220.749 186.033 220.512 185.902C220.274 185.772 220.074 185.59 219.911 185.355C219.752 185.118 219.623 184.843 219.525 184.53C219.428 184.218 219.353 183.882 219.301 183.524V183.256C219.353 182.872 219.428 182.52 219.525 182.201C219.623 181.879 219.752 181.601 219.911 181.366C220.074 181.129 220.272 180.945 220.507 180.814C220.744 180.684 221.023 180.619 221.342 180.619C221.677 180.619 221.972 180.683 222.226 180.81C222.483 180.937 222.698 181.119 222.87 181.356C223.046 181.594 223.178 181.877 223.266 182.206C223.357 182.535 223.402 182.899 223.402 183.3ZM221.991 183.402V183.3C221.991 183.075 221.972 182.868 221.933 182.68C221.897 182.488 221.838 182.32 221.757 182.177C221.679 182.034 221.575 181.923 221.444 181.845C221.317 181.763 221.163 181.723 220.98 181.723C220.788 181.723 220.624 181.754 220.487 181.815C220.354 181.877 220.245 181.967 220.16 182.084C220.076 182.201 220.012 182.341 219.97 182.504C219.927 182.667 219.901 182.851 219.892 183.056V183.734C219.908 183.975 219.953 184.192 220.028 184.384C220.103 184.573 220.219 184.722 220.375 184.833C220.531 184.944 220.736 184.999 220.99 184.999C221.176 184.999 221.332 184.958 221.459 184.877C221.586 184.792 221.688 184.677 221.767 184.53C221.848 184.384 221.905 184.215 221.938 184.022C221.973 183.83 221.991 183.624 221.991 183.402Z" fill="white"/>
<rect x="20" y="161.667" width="42" height="42" rx="10" fill="#8C30F5"/>
<path d="M26.8809 183.217V183.109C26.8809 182.423 26.9525 181.799 27.0957 181.239C27.2422 180.679 27.4342 180.188 27.6719 179.765C27.9128 179.338 28.1748 178.985 28.458 178.705C28.7412 178.425 29.0228 178.223 29.3027 178.1L29.5713 178.842C29.3857 178.979 29.2035 179.167 29.0244 179.408C28.8454 179.646 28.6826 179.939 28.5361 180.287C28.3929 180.632 28.2773 181.039 28.1895 181.508C28.1016 181.973 28.0576 182.504 28.0576 183.1V183.227C28.0576 183.822 28.1016 184.354 28.1895 184.823C28.2773 185.289 28.3929 185.696 28.5361 186.044C28.6826 186.396 28.8454 186.692 29.0244 186.933C29.2035 187.174 29.3857 187.364 29.5713 187.504L29.3027 188.227C29.0228 188.103 28.7412 187.901 28.458 187.621C28.1748 187.344 27.9128 186.993 27.6719 186.566C27.4342 186.143 27.2422 185.652 27.0957 185.092C26.9525 184.529 26.8809 183.904 26.8809 183.217ZM33.4336 184.848V178.5H34.8496V186H33.5752L33.4336 184.848ZM30.0938 183.422V183.319C30.0938 182.916 30.1393 182.549 30.2305 182.221C30.3216 181.889 30.4551 181.604 30.6309 181.366C30.8066 181.129 31.0231 180.945 31.2803 180.814C31.5374 180.684 31.8304 180.619 32.1592 180.619C32.4684 180.619 32.7386 180.684 32.9697 180.814C33.2041 180.945 33.4027 181.13 33.5654 181.371C33.7314 181.609 33.8649 181.89 33.9658 182.216C34.0667 182.538 34.14 182.891 34.1855 183.275V183.5C34.14 183.868 34.0667 184.21 33.9658 184.525C33.8649 184.841 33.7314 185.118 33.5654 185.355C33.4027 185.59 33.2041 185.772 32.9697 185.902C32.7354 186.033 32.4619 186.098 32.1494 186.098C31.8206 186.098 31.5277 186.031 31.2705 185.897C31.0166 185.764 30.8018 185.577 30.626 185.336C30.4535 185.095 30.3216 184.812 30.2305 184.486C30.1393 184.161 30.0938 183.806 30.0938 183.422ZM31.5 183.319V183.422C31.5 183.64 31.5163 183.843 31.5488 184.032C31.5846 184.221 31.6416 184.389 31.7197 184.535C31.8011 184.678 31.9053 184.791 32.0322 184.872C32.1624 184.95 32.3203 184.989 32.5059 184.989C32.7467 184.989 32.9453 184.936 33.1016 184.828C33.2578 184.717 33.3766 184.566 33.458 184.374C33.5426 184.182 33.5915 183.961 33.6045 183.71V183.07C33.5947 182.865 33.5654 182.681 33.5166 182.519C33.471 182.353 33.4027 182.211 33.3115 182.094C33.2236 181.977 33.113 181.885 32.9795 181.82C32.8493 181.755 32.6947 181.723 32.5156 181.723C32.3333 181.723 32.1771 181.765 32.0469 181.85C31.9167 181.931 31.8109 182.043 31.7295 182.187C31.6514 182.33 31.5928 182.499 31.5537 182.694C31.5179 182.886 31.5 183.095 31.5 183.319ZM38.3652 183.109V183.217C38.3652 183.881 38.2904 184.493 38.1406 185.053C37.9909 185.609 37.7923 186.103 37.5449 186.532C37.3008 186.965 37.0322 187.325 36.7393 187.611C36.4495 187.898 36.1598 188.103 35.8701 188.227L35.5967 187.504C35.7822 187.367 35.9629 187.178 36.1387 186.938C36.3177 186.697 36.4805 186.4 36.627 186.049C36.7734 185.701 36.889 185.292 36.9736 184.823C37.0615 184.354 37.1055 183.822 37.1055 183.227V183.1C37.1055 182.504 37.0615 181.972 36.9736 181.503C36.8857 181.034 36.7669 180.626 36.6172 180.277C36.4707 179.926 36.3079 179.631 36.1289 179.394C35.9531 179.153 35.7757 178.964 35.5967 178.827L35.8701 178.1C36.1598 178.223 36.4495 178.43 36.7393 178.72C37.0322 179.006 37.3008 179.364 37.5449 179.794C37.7923 180.224 37.9909 180.718 38.1406 181.278C38.2904 181.835 38.3652 182.445 38.3652 183.109ZM42.4424 180.106L40.5088 186H38.9512L41.5928 178.891H42.584L42.4424 180.106ZM44.0488 186L42.1104 180.106L41.9541 178.891H42.9551L45.6113 186H44.0488ZM43.9609 183.354V184.501H40.2061V183.354H43.9609ZM47.4326 181.732V188.031H46.0264V180.717H47.3301L47.4326 181.732ZM50.7773 183.3V183.402C50.7773 183.786 50.7318 184.143 50.6406 184.472C50.5527 184.8 50.4225 185.087 50.25 185.331C50.0775 185.572 49.8626 185.761 49.6055 185.897C49.3516 186.031 49.0586 186.098 48.7266 186.098C48.4043 186.098 48.1243 186.033 47.8867 185.902C47.6491 185.772 47.4489 185.59 47.2861 185.355C47.1266 185.118 46.998 184.843 46.9004 184.53C46.8027 184.218 46.7279 183.882 46.6758 183.524V183.256C46.7279 182.872 46.8027 182.52 46.9004 182.201C46.998 181.879 47.1266 181.601 47.2861 181.366C47.4489 181.129 47.6475 180.945 47.8818 180.814C48.1195 180.684 48.3978 180.619 48.7168 180.619C49.0521 180.619 49.3467 180.683 49.6006 180.81C49.8577 180.937 50.0726 181.119 50.2451 181.356C50.4209 181.594 50.5527 181.877 50.6406 182.206C50.7318 182.535 50.7773 182.899 50.7773 183.3ZM49.3662 183.402V183.3C49.3662 183.075 49.3467 182.868 49.3076 182.68C49.2718 182.488 49.2132 182.32 49.1318 182.177C49.0537 182.034 48.9495 181.923 48.8193 181.845C48.6924 181.763 48.5378 181.723 48.3555 181.723C48.1634 181.723 47.999 181.754 47.8623 181.815C47.7288 181.877 47.6198 181.967 47.5352 182.084C47.4505 182.201 47.387 182.341 47.3447 182.504C47.3024 182.667 47.2764 182.851 47.2666 183.056V183.734C47.2829 183.975 47.3285 184.192 47.4033 184.384C47.4782 184.573 47.5938 184.722 47.75 184.833C47.9062 184.944 48.1113 184.999 48.3652 184.999C48.5508 184.999 48.707 184.958 48.834 184.877C48.9609 184.792 49.0635 184.677 49.1416 184.53C49.223 184.384 49.2799 184.215 49.3125 184.022C49.3483 183.83 49.3662 183.624 49.3662 183.402ZM53.0576 181.732V188.031H51.6514V180.717H52.9551L53.0576 181.732ZM56.4023 183.3V183.402C56.4023 183.786 56.3568 184.143 56.2656 184.472C56.1777 184.8 56.0475 185.087 55.875 185.331C55.7025 185.572 55.4876 185.761 55.2305 185.897C54.9766 186.031 54.6836 186.098 54.3516 186.098C54.0293 186.098 53.7493 186.033 53.5117 185.902C53.2741 185.772 53.0739 185.59 52.9111 185.355C52.7516 185.118 52.623 184.843 52.5254 184.53C52.4277 184.218 52.3529 183.882 52.3008 183.524V183.256C52.3529 182.872 52.4277 182.52 52.5254 182.201C52.623 181.879 52.7516 181.601 52.9111 181.366C53.0739 181.129 53.2725 180.945 53.5068 180.814C53.7445 180.684 54.0228 180.619 54.3418 180.619C54.6771 180.619 54.9717 180.683 55.2256 180.81C55.4827 180.937 55.6976 181.119 55.8701 181.356C56.0459 181.594 56.1777 181.877 56.2656 182.206C56.3568 182.535 56.4023 182.899 56.4023 183.3ZM54.9912 183.402V183.3C54.9912 183.075 54.9717 182.868 54.9326 182.68C54.8968 182.488 54.8382 182.32 54.7568 182.177C54.6787 182.034 54.5745 181.923 54.4443 181.845C54.3174 181.763 54.1628 181.723 53.9805 181.723C53.7884 181.723 53.624 181.754 53.4873 181.815C53.3538 181.877 53.2448 181.967 53.1602 182.084C53.0755 182.201 53.012 182.341 52.9697 182.504C52.9274 182.667 52.9014 182.851 52.8916 183.056V183.734C52.9079 183.975 52.9535 184.192 53.0283 184.384C53.1032 184.573 53.2188 184.722 53.375 184.833C53.5312 184.944 53.7363 184.999 53.9902 184.999C54.1758 184.999 54.332 184.958 54.459 184.877C54.5859 184.792 54.6885 184.677 54.7666 184.53C54.848 184.384 54.9049 184.215 54.9375 184.022C54.9733 183.83 54.9912 183.624 54.9912 183.402Z" fill="white"/>
<circle cx="120" cy="252" r="8" fill="#8C30F5"/>
<circle cx="287.333" cy="122" r="8" fill="#FFB930"/>
</svg>
